<?xml version="1.0" encoding="utf-8" ?>
<svg baseProfile="full" height="200mm" version="1.1" viewBox="0,0,200,200" width="200mm" xmlns="http://www.w3.org/2000/svg" xmlns:ev="http://www.w3.org/2001/xml-events" xmlns:xlink="http://www.w3.org/1999/xlink"><defs /><rect fill="#1a1a1a" height="200" width="200" x="0" y="0" /><text alignment-baseline="middle" fill="#e1ed5e" style="dominant-baseline: central; font-size:9.0px; font-family:Arial;" text-anchor="middle" x="100.0" y="100.0">2022</text><line stroke="#e1ed5e" stroke-width="0.3" x1="100.0" x2="100.0" y1="15.0" y2="10.0" /><path d="M 100.0 14.0 a86.0,86.0 0 0,1 42.46469731375804,11.215312516191453" fill="none" id="id121" stroke="none" /><text fill="#e1ed5e" style="font-size:6.75px; font-family:Arial;" text-anchor="middle"><textPath startOffset="22.20632615414155" xlink:href="#id121">January</textPath></text><path d="M 100.0 79.0 l 0.0 -23.938601194507648 a44.93860119450765,44.93860119450765 0 0,0 0.7735441475060781,0.00665813869418794 l -0.41206366823354973 23.935054432422017" fill="#ff0300" stroke="none" /><path d="M 100.36148047927253 79.00311137660856 l 0.4118791707271272 -23.924337744202937 a44.92788291826028,44.92788291826028 0 0,0 0.7731304868448924,0.01996767951808823 l -0.8236362927668873 23.913703272542488" fill="#ff0300" stroke="none" /><path d="M 100.72285384407766 79.0124445844662 l 0.8263367333756615 -23.992108675498216 a45.00633481175006,45.00633481175006 0 0,0 0.7740214484675573,0.03333099176838048 l -1.2391990142325502 23.97432995720564" fill="#ff0500" stroke="none" /><path d="M 101.44485096284872 79.0497635885617 l 1.645508978975166 -23.859763403350936 a44.916438059706394,44.916438059706394 0 0,0 0.7708726159817578,0.05983455134039808 l -2.055971784319265 23.827903589822075" fill="#ff0200" stroke="none" /><path d="M 101.80526077348638 79.07773832637324 l 2.058359775855023 -23.855579471622267 a44.94421677344539,44.94421677344539 0 0,0 0.770204490446294,0.07314019692496619 l -2.468689393391561 23.816613730182123" fill="#ff0300" stroke="none" /><path d="M 102.16513564639614 79.11191278185805 l 2.464046652778503 -23.771823016483335 a44.89918608308818,44.89918608308818 0 0,0 0.7680610774456207,0.08630061124713921 l -2.872874433733849 23.725886451765597" fill="#ff0200" stroke="none" /><path d="M 102.52436894288641 79.15227682838746 l 2.876486147419599 -23.75571410723086 a44.929231606986136,44.929231606986136 0 0,0 0.7669746566935375,0.09957532275885733 l -3.2849755326209826 23.702680461307867" fill="#ff0300" stroke="none" /><path d="M 102.88285421437855 79.19881850522331 l 3.300799024791147 -23.81685457766488 a45.04449700400694,45.04449700400694 0 0,0 0.7671099709343506,0.1130520690621845 l -3.710277976154153 23.75650802444173" fill="#ff0500" stroke="none" /><path d="M 103.2404852339499 79.25152402106235 l 3.7019472868368846 -23.703167523032732 a44.99050988077312,44.99050988077312 0 0,0 0.7641333750186727,0.1260885542254876 l -4.109409867994432 23.635932705867617" fill="#ff0400" stroke="none" /><path d="M 103.59715602781102 79.31037775812273 l 4.098729750198742 -23.574504288255707 a44.9281599376582,44.9281599376582 0 0,0 0.7607939463666878,0.13903023082598817 l -4.503918817668331 23.50045857607898" fill="#ff0300" stroke="none" /><path d="M 104.307194497241 79.44645832069477 l 4.920040753821698 -23.47798845915369 a44.987970800120216,44.987970800120216 0 0,0 0.7565632958871945,0.16535543303935235 l -5.323446773862421 23.389819528018464" fill="#ff0400" stroke="none" /><path d="M 104.66035177308747 79.52364482259891 l 5.300207754465169 -23.287713412789017 a44.88325351028804,44.88325351028804 0 0,0 0.7518507350940715,0.17793877767377078 l -5.700282176521764 23.193028722974375" fill="#ff0200" stroke="none" /><path d="M 105.01212808612495 79.60689891045804 l 5.713280209240131 -23.245914481405933 a44.937713149466326,44.937713149466326 0 0,0 0.7495848323371487,0.19108586396524818 l -6.112573930262305 23.14412562127182" fill="#ff0300" stroke="none" /><path d="M 109.73455568895987 81.39251694778311 l 18.134088562167438 -34.663086469433416 a60.120004237831445,60.120004237831445 0 0,0 0.9128362454272134,0.48760550878606623 l -18.728069854122964 34.3458022341456" fill="#c2ff1e" stroke="none" /><line stroke="#e1ed5e" stroke-width="0.3" x1="143.23703022742887" x2="145.7803849466894" y1="26.81831364943548" y2="22.513508569990506" /><path d="M 143.74570117128098 25.957352633546492 a86.0,86.0 0 0,1 28.547481713284135,27.462654790039103" fill="none" id="id122" stroke="none" /><text fill="#e1ed5e" style="font-size:6.75px; font-family:Arial;" text-anchor="middle"><textPath startOffset="19.985693538727396" xlink:href="#id122">February</textPath></text><path d="M 113.06298171725822 83.55741782278167 l 39.188945151774654 -49.32774653165496 a84.0,84.0 0 0,0 1.1243864057420354,0.9091756109434814 l -40.032234956081176 48.64586482344735" fill="#4dd2ff" stroke="none" /><path d="M 117.65298651832404 88.62581576622439 l 20.148292642198363 -12.98196156613544 a44.968417188047326,44.968417188047326 0 0,0 0.4136503448204659,0.6542955071607991 l -20.368770583264784 12.633218411260435" fill="#ff0400" stroke="none" /><line stroke="#e1ed5e" stroke-width="0.3" x1="172.23445277983987" x2="176.4835382374775" y1="55.19839476539836" y2="52.563006222186495" /><path d="M 173.08426987136738 54.67131705675599 a86.0,86.0 0 0,1 12.851231095245387,41.99856678651699" fill="none" id="id123" stroke="none" /><text fill="#e1ed5e" style="font-size:6.75px; font-family:Arial;" text-anchor="middle"><textPath startOffset="22.20632615414155" xlink:href="#id123">March</textPath></text><path d="M 117.84615892207809 88.93136811851018 l 20.33499648463298 -12.6122708747896 a44.92867440225433,44.92867440225433 0 0,0 0.4019708630536057,0.6607344077382001 l -20.54908314597281 12.260368693844317" fill="#ff0300" stroke="none" /><path d="M 118.03404312379186 89.2402003453031 l 20.482024828129944 -12.22035913746157 a44.85058738288581,44.85058738288581 0 0,0 0.3898590867175718,0.6663955538800476 l -20.689343589317843 11.865984171227627" fill="#ff0100" stroke="none" /><path d="M 118.21658344932153 89.55222093294921 l 20.755081355878232 -11.90368683173447 a44.926369600863666,44.926369600863666 0 0,0 0.3789696704411869,0.6741447571426825 l -20.956908667611852 11.544658564656993" fill="#ff0300" stroke="none" /><path d="M 118.3937258080291 89.86733742301442 l 20.92415032382125 -11.526612778410351 a44.88896960769304,44.88896960769304 0 0,0 0.36700345314616106,0.6800016605151646 l -21.11946187618588 11.164730134562728" fill="#ff0200" stroke="none" /><path d="M 118.56541770881063 90.18545643968196 l 21.158599610483304 -11.185420161802565 a44.93323968193198,44.93323968193198 0 0,0 0.35559431298536326,0.6868950292911463 l -21.348003356628784 10.819552410251072" fill="#ff0300" stroke="none" /><path d="M 118.73160827565052 90.50648371742162 l 21.393945588116818 -10.842836760226328 a44.984745502844476,44.984745502844476 0 0,0 0.34411185404148426,0.6937084997576748 l -21.577417455111707 10.472968671969703" fill="#ff0400" stroke="none" /><path d="M 118.89224826269711 90.83032412892265 l 21.572807685920782 -10.470731241636717 a44.97962143546703,44.97962143546703 0 0,0 0.3320819879842318,0.6994493581604326 l -21.74984786774677 10.097839467835742" fill="#ff0400" stroke="none" /><path d="M 119.04729006885535 91.15688171328212 l 21.72480366482271 -10.086212152451065 a44.95200972485077,44.95200972485077 0 0,0 0.3197964809873238,0.7046291552256397 l -21.89520246277338 9.710760988383363" fill="#ff0300" stroke="none" /><path d="M 119.34039704204932 91.81776055985345 l 22.072067126401222 -9.337912648563998 a44.96607518690895,44.96607518690895 0 0,0 0.29544491436371967,0.715443294612144 l -22.22953372765114 8.95659478349855" fill="#ff0400" stroke="none" /><path d="M 119.47837535516314 92.15188598940014 l 22.126384908424576 -8.915034659587382 a44.8548685198096,44.8548685198096 0 0,0 0.2823858541679568,0.7186411975599378 l -22.276564312474232 8.53284445713166" fill="#ff0100" stroke="none" /><path d="M 119.7369772167798 92.82701384747503 l 22.54839075425482 -8.194734830239648 a44.99132352631899,44.99132352631899 0 0,0 0.25826502101842336,0.7301499927608386 l -22.686108856083056 7.805387211052196" fill="#ff0400" stroke="none" /><path d="M 119.85752413597 93.16781622104841 l 22.515463601088168 -7.746674970032216 a44.81086042677269,44.81086042677269 0 0,0 0.24467307261663102,0.7315413445472264 l -22.64547396747657 7.357960522562676" fill="#ff0000" stroke="none" /><path d="M 119.97218684219823 93.5106431181261 l 22.665917796364333 -7.3646031252347255 a44.83235634056697,44.83235634056697 0 0,0 0.23215585246601664,0.735997494624854 l -22.789329132598557 6.973355464183452" fill="#ff0000" stroke="none" /><path d="M 120.08093135843002 93.85539295169968 l 22.82351277398632 -6.983815389575292 a44.86810450664203,44.86810450664203 0 0,0 0.21962745481231688,0.7404745949708434 l -22.940346125910338 6.589911407857918" fill="#ff0100" stroke="none" /><path d="M 120.18372546131832 94.20196356495316 l 22.98002902420599 -6.601310834123767 a44.9093922691914,44.9093922691914 0 0,0 0.2070392046420203,0.7448301760801748 l -23.090254999414373 6.2047693546246405" fill="#ff0200" stroke="none" /><line stroke="#e1ed5e" stroke-width="0.3" x1="184.98032266829074" x2="189.97916517819016" y1="98.17113171792111" y2="98.06355123074" /><path d="M 185.9800911702706 98.14961562048488 a86.0,86.0 0 0,1 -9.607161424134198,41.387399972396054" fill="none" id="id124" stroke="none" /><text fill="#e1ed5e" style="font-size:6.75px; font-family:Arial;" text-anchor="middle"><textPath startOffset="21.466115282336823" xlink:href="#id124">April</textPath></text><line stroke="#e1ed5e" stroke-width="0.3" x1="174.80103733775053" x2="179.2010983576182" y1="140.37084112569926" y2="142.7455964860345" /><path d="M 175.68104954172406 140.8457921977663 a86.0,86.0 0 0,1 -30.038265399797805,32.042727171017184" fill="none" id="id125" stroke="none" /><text fill="#e1ed5e" style="font-size:6.75px; font-family:Arial;" text-anchor="middle"><textPath startOffset="22.206326154141568" xlink:href="#id125">May</textPath></text><line stroke="#e1ed5e" stroke-width="0.3" x1="143.8653032363475" x2="146.44561519142675" y1="172.8068346515853" y2="177.08958963109032" /><path d="M 144.38136562736335 173.6633856474863 a86.0,86.0 0 0,1 -40.68145358897372,12.25698825130547" fill="none" id="id126" stroke="none" /><text fill="#e1ed5e" style="font-size:6.75px; font-family:Arial;" text-anchor="middle"><textPath startOffset="21.466115282336833" xlink:href="#id126">June</textPath></text><line stroke="#e1ed5e" stroke-width="0.3" x1="102.19456741930631" x2="102.32365962044197" y1="184.97166512339345" y2="189.96999836594603" /><path d="M 102.22038585953345 185.97133177190398 a86.0,86.0 0 0,1 -42.740103519485714,-10.115201625700543" fill="none" id="id127" stroke="none" /><text fill="#e1ed5e" style="font-size:6.75px; font-family:Arial;" text-anchor="middle"><textPath startOffset="22.20632615414155" xlink:href="#id127">July</textPath></text><line stroke="#e1ed5e" stroke-width="0.3" x1="58.666819895761336" x2="56.23545636021788" y1="174.27360380694188" y2="178.64263932499728" /><path d="M 58.180547188652646 175.14741091055294 a86.0,86.0 0 0,1 -31.652253787137756,-30.449443065178592" fill="none" id="id128" stroke="none" /><text fill="#e1ed5e" style="font-size:6.75px; font-family:Arial;" text-anchor="middle"><textPath startOffset="22.20632615414155" xlink:href="#id128">August</textPath></text><line stroke="#e1ed5e" stroke-width="0.3" x1="26.63291911575756" x2="22.317208475507996" y1="142.92168965132927" y2="145.44649492493687" /><path d="M 25.769776987707644 143.4266507060508 a86.0,86.0 0 0,1 -11.730757126820373,-40.83630448921669" fill="none" id="id129" stroke="none" /><text fill="#e1ed5e" style="font-size:6.75px; font-family:Arial;" text-anchor="middle"><textPath startOffset="21.46611528233685" xlink:href="#id129">September</textPath></text><line stroke="#e1ed5e" stroke-width="0.3" x1="15.007084014347285" x2="10.007500721073583" y1="101.09737516637583" y2="101.16192664675087" /><path d="M 14.007167355692545 101.11028546245083 a86.0,86.0 0 0,1 10.666146001902534,-42.60595125391555" fill="none" id="id130" stroke="none" /><text fill="#e1ed5e" style="font-size:6.75px; font-family:Arial;" text-anchor="middle"><textPath startOffset="22.20632615414155" xlink:href="#id130">October</textPath></text><line stroke="#e1ed5e" stroke-width="0.3" x1="26.266209847984243" x2="21.928928074336255" y1="57.711370442889674" y2="55.22380399835377" /><path d="M 25.398753493254645 57.213857153982495 a86.0,86.0 0 0,1 29.58750427330803,-30.492523968695096" fill="none" id="id131" stroke="none" /><text fill="#e1ed5e" style="font-size:6.75px; font-family:Arial;" text-anchor="middle"><textPath startOffset="21.46611528233685" xlink:href="#id131">November</textPath></text><line stroke="#e1ed5e" stroke-width="0.3" x1="56.762969772571076" x2="54.21961505331055" y1="26.818313649435495" y2="22.513508569990535" /><path d="M 56.25429882871897 25.957352633546506 a86.0,86.0 0 0,1 42.265352541879196,-11.944610805530505" fill="none" id="id132" stroke="none" /><text fill="#e1ed5e" style="font-size:6.75px; font-family:Arial;" text-anchor="middle"><textPath startOffset="22.20632615414155" xlink:href="#id132">December</textPath></text></svg>