<?xml version="1.0" encoding="utf-8" ?>
<svg baseProfile="full" height="200mm" version="1.1" viewBox="0,0,200,200" width="200mm" xmlns="http://www.w3.org/2000/svg" xmlns:ev="http://www.w3.org/2001/xml-events" xmlns:xlink="http://www.w3.org/1999/xlink"><defs /><rect fill="#1a1a1a" height="200" width="200" x="0" y="0" /><text alignment-baseline="middle" fill="#e1ed5e" style="dominant-baseline: central; font-size:9.0px; font-family:Arial;" text-anchor="middle" x="100.0" y="100.0">2019</text><line stroke="#e1ed5e" stroke-width="0.3" x1="100.0" x2="100.0" y1="15.0" y2="10.0" /><path d="M 100.0 14.0 a86.0,86.0 0 0,1 42.46469731375804,11.215312516191453" fill="none" id="id25" stroke="none" /><text fill="#e1ed5e" style="font-size:6.75px; font-family:Arial;" text-anchor="middle"><textPath startOffset="22.20632615414155" xlink:href="#id25">January</textPath></text><line stroke="#e1ed5e" stroke-width="0.3" x1="143.23703022742887" x2="145.7803849466894" y1="26.81831364943548" y2="22.513508569990506" /><path d="M 143.74570117128098 25.957352633546492 a86.0,86.0 0 0,1 28.547481713284135,27.462654790039103" fill="none" id="id26" stroke="none" /><text fill="#e1ed5e" style="font-size:6.75px; font-family:Arial;" text-anchor="middle"><textPath startOffset="19.985693538727396" xlink:href="#id26">February</textPath></text><path d="M 116.38621287248628 86.86637796730983 l 15.91245255276333 -12.75390104274897 a41.39284526622456,41.39284526622456 0 0,0 0.4408257588760274,0.559803947215845 l -16.129632392233322 12.478104701580087" fill="#ff5c08" stroke="none" /><path d="M 116.60985879189232 87.15038557335679 l 24.64617996237294 -19.06662263503036 a52.16039610538232,52.16039610538232 0 0,0 0.5432730283660743,0.7148836235811751 l -24.970728930963126 18.63955423556815" fill="#edff19" stroke="none" /><path d="M 117.2510076193507 88.02491185347247 l 30.79819149177142 -21.3791023692956 a58.491260545367666,58.491260545367666 0 0,0 0.5670185532967884,0.8320297605484721 l -31.161634510736942 20.84579458547672" fill="#8fff24" stroke="none" /><path d="M 117.45458315368197 88.32363383020206 l 26.692320074718392 -17.856015257981966 a53.114128228312524,53.114128228312524 0 0,0 0.5018105595489439,0.7642919094366455 l -26.99572726962526 17.393905284567648" fill="#dfff1b" stroke="none" /><path d="M 117.65298651832404 88.62581576622439 l 43.87719817962829 -28.270986058870964 a73.19633294432907,73.19633294432907 0 0,0 0.673310075277971,1.0650148433254234 l -44.357335851152214 27.511523567831333" fill="#3cffa0" stroke="none" /><line stroke="#e1ed5e" stroke-width="0.3" x1="172.23445277983987" x2="176.4835382374775" y1="55.19839476539836" y2="52.563006222186495" /><path d="M 173.08426987136738 54.67131705675599 a86.0,86.0 0 0,1 12.851231095245387,41.99856678651699" fill="none" id="id27" stroke="none" /><text fill="#e1ed5e" style="font-size:6.75px; font-family:Arial;" text-anchor="middle"><textPath startOffset="22.20632615414155" xlink:href="#id27">March</textPath></text><path d="M 117.84615892207809 88.93136811851018 l 17.649418634021906 -10.946608658775038 a41.76849101998815,41.76849101998815 0 0,0 0.373697123432357,0.6142598138801411 l -17.83523155574049 10.641181071687814" fill="#ff6309" stroke="none" /><path d="M 118.03404312379186 89.2402003453031 l 39.964373247160815 -23.84427310688191 a67.53708724269231,67.53708724269231 0 0,0 0.5870591376479505,1.0034743642557664 l -40.36889205927909 23.15281933027225" fill="#32ff4c" stroke="none" /><path d="M 118.3937258080291 89.86733742301442 l 32.588363335014755 -17.952148088766965 a58.20592756344012,58.20592756344012 0 0,0 0.4758803019104469,0.8817339257477956 l -32.892551736143666 17.38853317968671" fill="#93ff23" stroke="none" /><path d="M 119.04729006885535 91.15688171328212 l 21.562100855106017 -10.010673837724672 a44.772626778946176,44.772626778946176 0 0,0 0.31852031924949353,0.7018173019979794 l -21.731223491318858 9.638034526884631" fill="#ff980e" stroke="none" /><path d="M 119.196687751892 91.48605970444005 l 40.01511673714649 -17.74714050794252 a64.77408552666881,64.77408552666881 0 0,0 0.4432684691250982,1.0231247418007903 l -40.314675916114275 17.055716621555128" fill="#3bff2e" stroke="none" /><path d="M 119.34039704204932 91.81776055985345 l 45.499821457527304 -19.24936870944185 a70.40416934205959,70.40416934205959 0 0,0 0.4625832629521847,1.1201820630140022 l -45.824426407365685 18.463312075974546" fill="#37ff78" stroke="none" /><path d="M 119.47837535516314 92.15188598940014 l 58.435126065489385 -23.54434203179955 a84.0,84.0 0 0,0 0.5288258004731983,1.3458039804168624 l -58.83174541584429 22.534989046486903" fill="#4dd2ff" stroke="none" /><path d="M 119.61058180528143 92.48833698450437 l 44.039852108827716 -16.86908280327949 a68.16009466054237,68.16009466054237 0 0,0 0.41024396249463946,1.099249859019818 l -44.323700659823984 16.108509807230337" fill="#33ff56" stroke="none" /><path d="M 119.7369772167798 92.82701384747503 l 34.79417339020488 -12.645205047118779 a58.020747056094365,58.020747056094365 0 0,0 0.3330582050821661,0.9416003958675226 l -35.00668467609685 12.044407024824642" fill="#96ff23" stroke="none" /><path d="M 119.85752413597 93.16781622104841 l 29.514905581160267 -10.154904396345104 a52.21300585915613,52.21300585915613 0 0,0 0.2850897405772032,0.8523820374187396 l -29.685332615509243 9.645349256004051" fill="#edff1a" stroke="none" /><path d="M 119.97218684219823 93.5106431181261 l 35.28461790367629 -11.464667330956669 a58.10044282239686,58.10044282239686 0 0,0 0.3008621213130735,0.9538151425510794 l -35.47673550875757 10.855602021979172" fill="#95ff23" stroke="none" /><path d="M 120.08093135843002 93.85539295169968 l 35.690401069905406 -10.92098200309528 a58.323887477628,58.323887477628 0 0,0 0.28549293762956146,0.9625402595451391 l -35.87309990464667 10.305012356803612" fill="#92ff23" stroke="none" /><path d="M 120.18372546131832 94.20196356495316 l 36.05144637201717 -10.356244688409479 a58.5094466709473,58.5094466709473 0 0,0 0.26973754688521734,0.9703894723191704 l -36.22437068946875 9.734143912671355" fill="#8fff24" stroke="none" /><path d="M 120.28053869075195 94.5502522615342 l 29.999765985542304 -8.061479989620063 a52.064021291686394,52.064021291686394 0 0,0 0.2251240052794184,0.8674946262029442 l -30.134086322692024 7.543888937868267" fill="#efff19" stroke="none" /><path d="M 120.37134235888165 94.90015583598534 l 59.81838057343272 -14.975175110894142 a82.66436997188876,82.66436997188876 0 0,0 0.3336774838438388,1.3833085916044017 l -60.06729085753738 13.943281287630334" fill="#4be2ff" stroke="none" /><path d="M 120.53481517161879 95.60439243477599 l 22.07148512927966 -4.724541526143332 a43.5714808651153,43.5714808651153 0 0,0 0.15067579135480536,0.7347486700641626 l -22.149540216549465 4.343917199915757" fill="#ff830c" stroke="none" /><path d="M 120.6074358757038 95.95851677861258 l 36.32837515685449 -7.12463789974943 a58.02041743065181,58.02041743065181 0 0,0 0.1837707649451232,0.981710774661135 l -36.44563164570947 6.498249047625732" fill="#96ff23" stroke="none" /><path d="M 120.67395015179393 96.31383870115 l 36.86773002386836 -6.573509106513978 a58.44917274234862,58.44917274234862 0 0,0 0.16807793988539782,0.9920055155502667 l -36.97541982527399 5.937917802647873" fill="#90ff24" stroke="none" /><path d="M 120.73433829027371 96.67025291283417 l 36.76733569052281 -5.9045013737330345 a58.23842249950994,58.23842249950994 0 0,0 0.15043291409478532,0.9911649473433232 l -36.8635244980569 5.270737313997629" fill="#93ff23" stroke="none" /><path d="M 120.78858239683441 97.02765380044208 l 37.133152678784334 -5.309288682387277 a58.5107927692662,58.5107927692662 0 0,0 0.13397300069734036,0.9982544685944544 l -37.21904167853951 4.669315871728158" fill="#8fff24" stroke="none" /><path d="M 120.83666639777658 97.38593545837742 l 36.866475267091246 -4.6250846431266215 a58.15546267475533,58.15546267475533 0 0,0 0.11606071007675985,0.9943372868564861 l -36.9406263301716 3.9898036179452823" fill="#94ff23" stroke="none" /><path d="M 120.87857604477298 97.74499172005257 l 37.1447544341364 -4.011850646613498 a58.36077793064579,58.36077793064579 0 0,0 0.09927689214780104,0.9997047556560895 l -37.20830845196644 3.3718703602529727" fill="#91ff24" stroke="none" /><path d="M 120.91429891909075 98.10471618934814 l 36.99650967563509 -3.352676850900849 a58.1481112608155,58.1481112608155 0 0,0 0.08175490475700131,0.997616915615526 l -37.04873906421158 2.7153460180775544" fill="#94ff23" stroke="none" /><path d="M 120.96714384426684 98.82574320788733 l 41.00276023651258 -2.2963437490918643 a62.06701281596862,62.06701281596862 0 0,0 0.0505591731907883,1.0672242368063904 l -41.036213017936866 1.5902084056624743" fill="#5eff2a" stroke="none" /><path d="M 120.98425023603335 99.18683210126433 l 37.15908505388338 -1.4399644863326866 a58.18697486706385,58.18697486706385 0 0,0 0.030169407669252035,1.0011757643095935 l -37.17836615600828 0.800118574598094" fill="#94ff23" stroke="none" /><line stroke="#e1ed5e" stroke-width="0.3" x1="184.98032266829074" x2="189.97916517819016" y1="98.17113171792111" y2="98.06355123074" /><path d="M 185.9800911702706 98.14961562048488 a86.0,86.0 0 0,1 -9.607161424134198,41.387399972396054" fill="none" id="id28" stroke="none" /><text fill="#e1ed5e" style="font-size:6.75px; font-family:Arial;" text-anchor="middle"><textPath startOffset="21.466115282336823" xlink:href="#id28">April</textPath></text><path d="M 120.99513854157772 99.54816195383933 l 37.25166708033461 -0.8016960896196688 a58.260292764338246,58.260292764338246 0 0,0 0.012947636745284511,1.0028087347186023 l -37.259947724197616 0.1603510968406036" fill="#93ff23" stroke="none" /><path d="M 120.99980553446 99.90962569577887 l 31.07510177029555 -0.13373412894146997 a52.07538953660065,52.07538953660065 0 0,0 -0.0038578011739179075,0.8964171303015308 l -31.07279967183213 -0.4011924795637456" fill="#efff19" stroke="none" /><path d="M 120.99824983174949 100.27111621757518 l 37.106285226120576 0.47909305677279945 a58.10937797160257,58.10937797160257 0 0,0 -0.02152243329887302,1.0000629046208918 l -37.0925407301367 -1.117745777183806" fill="#95ff23" stroke="none" /><path d="M 120.9904718944345 100.63252640178507 l 38.569225595701106 1.1622441652754802 a59.5867331417393,59.5867331417393 0 0,0 -0.039718436873755925,1.0249563708048013 l -38.543505025976145 -1.8259777830942878" fill="#80ff25" stroke="none" /><path d="M 120.9764740272857 100.99374915477107 l 36.958112072770824 1.7508706461570485 a57.99956210555826,57.99956210555826 0 0,0 -0.05582775224184319,0.9968420192407698 l -36.922497969641455 -2.3867843817332415" fill="#96ff23" stroke="none" /><path d="M 120.95626037817324 101.35467743843564 l 37.21580129948474 2.405744415459993 a58.29347761412506,58.29347761412506 0 0,0 -0.07334829933278945,1.0007792689007735 l -37.16887644148761 -3.0459968208575368" fill="#92ff23" stroke="none" /><path d="M 120.89721153311464 102.0752229133903 l 36.99787113416643 3.6741184249686425 a58.1798549575046,58.1798549575046 0 0,0 -0.10754324135490217,0.9957168506636431 l -36.92914559131047 -4.310431597517077" fill="#94ff23" stroke="none" /><path d="M 120.8583938346157 102.4346265915055 l 36.8953850401889 4.3064910095621185 a58.14586520838132,58.14586520838132 0 0,0 -0.12459410371016011,0.9931375958021259 l -36.81578942723189 -4.940946359651639" fill="#94ff23" stroke="none" /><path d="M 120.81339534386255 102.79330883721812 l 36.84356773935843 4.9446744109120955 a58.17389256984829,58.17389256984829 0 0,0 -0.14173916282831295,0.9913233746974016 l -36.752994525513515 -5.578143257589907" fill="#94ff23" stroke="none" /><path d="M 120.76222939487914 103.15116336523771 l 36.63372516093602 5.5600412876567304 a58.05325732358012,58.05325732358012 0 0,0 -0.158452898257157,0.9866863487024194 l -36.53259050831757 -6.189806866052355" fill="#96ff23" stroke="none" /><path d="M 120.5718875245553 104.21870165774334 l 36.3673524597755 7.457896604123481 a58.12417738740262,58.12417738740262 0 0,0 -0.20942960739851463,0.978385403059525 l -36.233588813652545 -8.082795826599176" fill="#95ff23" stroke="none" /><path d="M 120.49622156327973 104.57218783832717 l 35.87495564427499 8.00279385109426 a57.756729341738364,57.756729341738364 0 0,0 -0.22480963667123466,0.9684740309648507 l -35.7318854416732 -8.619136539407677" fill="#9aff23" stroke="none" /><path d="M 120.32669344350535 105.2749913415812 l 37.3092800761546 9.682151694240556 a59.54512214575577,59.54512214575577 0 0,0 -0.26600202156939,0.9898924774406092 l -37.13708997824343 -10.322935104856715" fill="#81ff25" stroke="none" /><path d="M 120.23288151984713 105.62410040840565 l 37.928944596111215 10.543045615333414 a60.36699949223811,60.36699949223811 0 0,0 -0.2869081446865934,0.9987648904665155 l -37.74184381453853 -11.194367981304511" fill="#75ff27" stroke="none" /><path d="M 120.13307415673323 105.97154293290107 l 35.74200537081968 10.601208634025236 a58.28104843522824,58.28104843522824 0 0,0 -0.2935511711771665,0.9593422121640733 l -35.55422742713638 -11.214877818741366" fill="#92ff23" stroke="none" /><path d="M 119.9155931802556 106.66101706037122 l 35.33777714453307 11.819157697431438 a58.26192402699351,58.26192402699351 0 0,0 -0.326292212974444,0.9483579049030351 l -35.12909410061539 -12.425688305423773" fill="#93ff23" stroke="none" /><path d="M 119.79798401119884 107.00284435728193 l 34.92018085248259 12.351792551188357 a58.0403268073823,58.0403268073823 0 0,0 -0.3412653449542704,0.9390156616805829 l -34.70239124652309 -12.95105600987507" fill="#96ff23" stroke="none" /><path d="M 119.67450827220406 107.3425965602758 l 16.0047479173106 5.973028925543816 a38.08300413984733,38.08300413984733 0 0,0 -0.2344928707403059,0.612186890562299 l -15.899560766976787 -6.247639382939259" fill="#ff2003" stroke="none" /><path d="M 119.54520255179757 107.68017299344265 l 34.59615855218098 13.594358098114643 a58.17123563546711,58.17123563546711 0 0,0 -0.374227707608039,0.9288024800922274 l -34.35702823031555 -14.187859946049684" fill="#94ff23" stroke="none" /><path d="M 119.41010516605496 108.01547362559984 l 26.340634596422664 10.87746099688446 a49.4982137805337,49.4982137805337 0 0,0 -0.3319892782724526,0.7847245857886584 l -26.1494943369579 -11.329260108339282" fill="#ffe615" stroke="none" /><path d="M 119.26925614724726 108.34839909993367 l 24.689335268007497 10.696646655913566 a47.90690479519236,47.90690479519236 0 0,0 -0.3343420952697892,0.7538531610979882 l -24.501552088006434 -11.120048153504243" fill="#ffcc13" stroke="none" /><path d="M 118.81262510543309 109.33194174019688 l 33.76921120328992 16.751107822294028 a58.69561298833754,58.69561298833754 0 0,0 -0.4567673882030697,0.9012453904580034 l -33.47586514530058 -17.329907424454728" fill="#8cff24" stroke="none" /><line stroke="#e1ed5e" stroke-width="0.3" x1="174.80103733775053" x2="179.2010983576182" y1="140.37084112569926" y2="142.7455964860345" /><path d="M 175.68104954172406 140.8457921977663 a86.0,86.0 0 0,1 -30.038265399797805,32.042727171017184" fill="none" id="id29" stroke="none" /><text fill="#e1ed5e" style="font-size:6.75px; font-family:Arial;" text-anchor="middle"><textPath startOffset="22.206326154141568" xlink:href="#id29">May</textPath></text><path d="M 118.48025628344425 109.97397251340804 l 32.952979406388955 17.785040737160642 a58.44604819978149,58.44604819978149 0 0,0 -0.48544617049409633,0.8812258068187482 l -32.64195682644335 -18.349637062377194" fill="#90ff24" stroke="none" /><path d="M 118.30583269289576 110.29060199501025 l 13.43453811970826 7.5522095659906086 a36.4117709501061,36.4117709501061 0 0,0 -0.31183734866349316,0.5437147022431427 l -13.302548774892387 -7.782344114092067" fill="#ff0000" stroke="none" /><path d="M 118.12598468904814 110.60418214915192 l 22.349066458312926 13.0747970746464 a46.89268410384041,46.89268410384041 0 0,0 -0.4135915183749039,0.693203174536028 l -22.120694064239792 -13.457562343068531" fill="#ffbb11" stroke="none" /><path d="M 116.93607887273984 112.41649034213515 l 29.45825494286921 21.596978895925396 a57.52695281172692,57.52695281172692 0 0,0 -0.5923597812809068,0.793562729077747 l -29.08213389489321 -22.10085450451246" fill="#9dff22" stroke="none" /><path d="M 116.71984013943494 112.70617746262583 l 29.87220432745955 22.701265455839934 a58.51927564170189,58.51927564170189 0 0,0 -0.6163840396800572,0.7967594606911846 l -29.477013470561424 -23.212102910644372" fill="#8fff24" stroke="none" /><path d="M 116.498646956653 112.99209946851258 l 18.680701999453056 14.710390443300417 a44.77738871673493,44.77738871673493 0 0,0 -0.48206502541956464,0.6014502400970587 l -18.42471906197864 -15.029768516975727" fill="#ff980e" stroke="none" /><path d="M 116.27256486870786 113.27417163493432 l 28.999247366192623 23.655827457354285 a58.42398322597084,58.42398322597084 0 0,0 -0.6423967347156757,0.7738082499465566 l -28.587754631583405 -24.151496964414612" fill="#90ff24" stroke="none" /><path d="M 116.0416608686014 113.55231037782055 l 11.830522647730671 9.994658044897317 a36.48723524561111,36.48723524561111 0 0,0 -0.40945191860387353,0.4762850842429836 l -11.656728219556019 -10.19682022830183" fill="#ff0100" stroke="none" /><path d="M 115.80600337817218 113.82643327865902 l 23.481961231332846 20.54104142894514 a52.19834749238266,52.19834749238266 0 0,0 -0.5974005182273822,0.6711858152278756 l -23.124901863457126 -20.94220141391388" fill="#edff1a" stroke="none" /><path d="M 114.55890576462653 115.13401014063108 l 25.748030694107108 26.76512671526954 a58.139373886875326,58.139373886875326 0 0,0 -0.7271966729065226,0.68760984356088 l -25.283498186809776 -27.20437119557634" fill="#94ff23" stroke="none" /><path d="M 112.34349029814194 116.9893568818739 l 22.21735614621277 30.57956732031635 a58.7984239304421,58.7984239304421 0 0,0 -0.8239413965850136,0.5878603094624997 l -21.687687421778868 -30.95747189162307" fill="#8bff24" stroke="none" /><path d="M 111.7513745106137 117.40417183066458 l 13.764070426280968 20.385040624141613 a45.596737912729935,45.596737912729935 0 0,0 -0.6542595613346784,0.433607561569175 l -13.411136166206326 -20.618946206802107" fill="#ffa60f" stroke="none" /><line stroke="#e1ed5e" stroke-width="0.3" x1="143.8653032363475" x2="146.44561519142675" y1="172.8068346515853" y2="177.08958963109032" /><path d="M 144.38136562736335 173.6633856474863 a86.0,86.0 0 0,1 -40.68145358897372,12.25698825130547" fill="none" id="id30" stroke="none" /><text fill="#e1ed5e" style="font-size:6.75px; font-family:Arial;" text-anchor="middle"><textPath startOffset="21.466115282336833" xlink:href="#id30">June</textPath></text><path d="M 108.92500713936063 119.00905698771935 l 15.831384843941294 33.71870655047512 a58.25028748230043,58.25028748230043 0 0,0 -0.9112896996992457,0.4183284051946725 l -15.248627148474629 -33.986222026003865" fill="#93ff23" stroke="none" /><path d="M 108.59647513512805 119.15986991738527 l 15.174068819220931 33.820046021617955 a58.06815179415895,58.06815179415895 0 0,0 -0.9154840247562519,0.40132129285765145 l -14.589664119806924 -34.07623186777006" fill="#95ff23" stroke="none" /><path d="M 108.2653958097858 119.30500536409082 l 14.710665638271655 34.35884809290705 a58.37558194587061,58.37558194587061 0 0,0 -0.927139173685361,0.38754424979369434 l -14.117055005088833 -34.60697738572072" fill="#91ff24" stroke="none" /><path d="M 107.59598834532513 119.57807347666477 l 13.646751379261362 35.173448019491325 a58.72804353246044,58.72804353246044 0 0,0 -0.9456047807053247,0.3575468158780489 l -13.039276377795762 -35.403143085476" fill="#8cff24" stroke="none" /><path d="M 107.2578585660854 119.70592522655815 l 12.881898913391986 34.975845072205566 a58.272685147836825,58.272685147836825 0 0,0 -0.9442407097805258,0.33857112405198886 l -12.277938642981725 -35.19240373729751" fill="#92ff23" stroke="none" /><path d="M 106.57524785965236 119.94407469862006 l 5.51148203984127 16.717454892796805 a38.6025490304157,38.6025490304157 0 0,0 -0.6328587455358353,0.202621385300087 l -5.222901949214494 -16.8098491247566" fill="#ff2904" stroke="none" /><path d="M 106.2309692047433 120.05430185196036 l 11.01716086082425 35.458603981926586 a58.13072083572278,58.13072083572278 0 0,0 -0.9581189159557848,0.28867336980816466 l -10.405166970428219 -35.642992720840475" fill="#94ff23" stroke="none" /><path d="M 105.18746579009965 120.34920634021253 l 9.541602954573062 37.429460780166174 a59.626502834669296,59.626502834669296 0 0,0 -0.9967470458266794,0.2449761731290568 l -8.895902624003172 -37.58815821160926" fill="#7fff26" stroke="none" /><path d="M 104.13013068566511 120.58985236759428 l 7.276758334631602 36.27666803492394 a57.99929533892102,57.99929533892102 0 0,0 -0.9805537227303505,0.18792545469880095 l -6.651236997329547 -36.39655068797121" fill="#96ff23" stroke="none" /><path d="M 103.7750983002368 120.6578951692458 l 2.809994381816318 15.376704061478296 a36.63134978880974,36.63134978880974 0 0,0 -0.6212520430310331,0.10801263093415901 l -2.544893367313235 -15.422795270933461" fill="#ff0400" stroke="none" /><path d="M 102.34483914955558 120.86867818915974 l 2.63359727462915 23.438577445493543 a44.58607104359123,44.58607104359123 0 0,0 -0.763414180604868,0.07913100123195563 l -2.2297504974186793 -23.480437815181258" fill="#ff940d" stroke="none" /><line stroke="#e1ed5e" stroke-width="0.3" x1="102.19456741930631" x2="102.32365962044197" y1="184.97166512339345" y2="189.96999836594603" /><path d="M 102.22038585953345 185.97133177190398 a86.0,86.0 0 0,1 -42.740103519485714,-10.115201625700543" fill="none" id="id31" stroke="none" /><text fill="#e1ed5e" style="font-size:6.75px; font-family:Arial;" text-anchor="middle"><textPath startOffset="22.20632615414155" xlink:href="#id31">July</textPath></text><path d="M 100.54218724476979 120.99299961872073 l 0.967945286101663 37.47796580995256 a58.49046331173915,58.49046331173915 0 0,0 -1.0067052951293585,0.0173313446147512 l -0.32268030107963663 -37.489074631846464" fill="#8fff24" stroke="none" /><path d="M 92.7421414339146 119.70592522655815 l -12.83820561783043 34.857212722539636 a58.14626229205398,58.14626229205398 0 0,0 -0.9362372777346142,-0.35400482779989473 l 13.436313116325328 -34.631059644633105" fill="#94ff23" stroke="none" /><path d="M 92.40401165467489 119.57807347666478 l -13.774152290788841 35.501814032376885 a59.08025828325375,59.08025828325375 0 0,0 -0.9449435037784938,-0.3760125215648327 l 14.383216870609195 -35.259454666405986" fill="#87ff25" stroke="none" /><path d="M 92.06813273071674 119.44442032107085 l -13.655664494957097 33.47591067638517 a57.15402838429143,57.15402838429143 0 0,0 -0.9077380795644445,-0.3794345908776772 l 14.229874034019005 -33.235891042487516" fill="#a2ff22" stroke="none" /><line stroke="#e1ed5e" stroke-width="0.3" x1="58.666819895761336" x2="56.23545636021788" y1="174.27360380694188" y2="178.64263932499728" /><path d="M 58.180547188652646 175.14741091055294 a86.0,86.0 0 0,1 -31.652253787137756,-30.449443065178592" fill="none" id="id32" stroke="none" /><text fill="#e1ed5e" style="font-size:6.75px; font-family:Arial;" text-anchor="middle"><textPath startOffset="22.20632615414155" xlink:href="#id32">August</textPath></text><line stroke="#e1ed5e" stroke-width="0.3" x1="26.63291911575756" x2="22.317208475507996" y1="142.92168965132927" y2="145.44649492493687" /><path d="M 25.769776987707644 143.4266507060508 a86.0,86.0 0 0,1 -11.730757126820373,-40.83630448921669" fill="none" id="id33" stroke="none" /><text fill="#e1ed5e" style="font-size:6.75px; font-family:Arial;" text-anchor="middle"><textPath startOffset="21.46611528233685" xlink:href="#id33">September</textPath></text><path d="M 79.23777060512086 103.15116336523772 l -48.711776062762716 7.393173501035544 a70.26962696839867,70.26962696839867 0 0,0 -0.17121010231179545,-1.1974430568042675 l 48.83182021609112 -6.553584972250876" fill="#37ff76" stroke="none" /><path d="M 79.18660465613746 102.79330883721812 l -57.241956832301184 7.682286394779645 a78.75516553731319,78.75516553731319 0 0,0 -0.16875540896160632,-1.3451466493519229 l 57.36571375050964 -6.695821991140314" fill="#45ffeb" stroke="none" /><path d="M 79.1416061653843 102.43462659150553 l -46.46494040968346 5.42346550703239 a67.78038761469816,67.78038761469816 0 0,0 -0.1252894595509138,-1.1600247910856039 l 46.551412170735425 -4.622844394062004" fill="#33ff50" stroke="none" /><line stroke="#e1ed5e" stroke-width="0.3" x1="15.007084014347285" x2="10.007500721073583" y1="101.09737516637583" y2="101.16192664675087" /><path d="M 14.007167355692545 101.11028546245083 a86.0,86.0 0 0,1 10.666146001902534,-42.60595125391555" fill="none" id="id34" stroke="none" /><text fill="#e1ed5e" style="font-size:6.75px; font-family:Arial;" text-anchor="middle"><textPath startOffset="22.20632615414155" xlink:href="#id34">October</textPath></text><path d="M 79.05617556472873 98.46500227214037 l -23.341098313898794 -1.7106967730900435 a44.40370385106917,44.40370385106917 0 0,0 0.06243058459661917,-0.7618112629508379 l 23.308193245482677 2.11222195324866" fill="#ff910d" stroke="none" /><line stroke="#e1ed5e" stroke-width="0.3" x1="26.266209847984243" x2="21.928928074336255" y1="57.711370442889674" y2="55.22380399835377" /><path d="M 25.398753493254645 57.213857153982495 a86.0,86.0 0 0,1 29.58750427330803,-30.492523968695096" fill="none" id="id35" stroke="none" /><text fill="#e1ed5e" style="font-size:6.75px; font-family:Arial;" text-anchor="middle"><textPath startOffset="21.46611528233685" xlink:href="#id35">November</textPath></text><line stroke="#e1ed5e" stroke-width="0.3" x1="56.762969772571076" x2="54.21961505331055" y1="26.818313649435495" y2="22.513508569990535" /><path d="M 56.25429882871897 25.957352633546506 a86.0,86.0 0 0,1 42.265352541879196,-11.944610805530505" fill="none" id="id36" stroke="none" /><text fill="#e1ed5e" style="font-size:6.75px; font-family:Arial;" text-anchor="middle"><textPath startOffset="22.20632615414155" xlink:href="#id36">December</textPath></text></svg>