<?xml version="1.0" encoding="utf-8" ?>
<svg baseProfile="full" height="200mm" version="1.1" viewBox="0,0,200,200" width="200mm" xmlns="http://www.w3.org/2000/svg" xmlns:ev="http://www.w3.org/2001/xml-events" xmlns:xlink="http://www.w3.org/1999/xlink"><defs /><rect fill="#1a1a1a" height="200" width="200" x="0" y="0" /><text alignment-baseline="middle" fill="#e1ed5e" style="dominant-baseline: central; font-size:9.0px; font-family:Arial;" text-anchor="middle" x="100.0" y="100.0">2021</text><line stroke="#e1ed5e" stroke-width="0.3" x1="100.0" x2="100.0" y1="15.0" y2="10.0" /><path d="M 100.0 14.0 a86.0,86.0 0 0,1 42.46469731375804,11.215312516191453" fill="none" id="id49" stroke="none" /><text fill="#e1ed5e" style="font-size:6.75px; font-family:Arial;" text-anchor="middle"><textPath startOffset="22.20632615414155" xlink:href="#id49">January</textPath></text><line stroke="#e1ed5e" stroke-width="0.3" x1="143.23703022742887" x2="145.7803849466894" y1="26.81831364943548" y2="22.513508569990506" /><path d="M 143.74570117128098 25.957352633546492 a86.0,86.0 0 0,1 28.547481713284135,27.462654790039103" fill="none" id="id50" stroke="none" /><text fill="#e1ed5e" style="font-size:6.75px; font-family:Arial;" text-anchor="middle"><textPath startOffset="19.985693538727396" xlink:href="#id50">February</textPath></text><line stroke="#e1ed5e" stroke-width="0.3" x1="172.23445277983987" x2="176.4835382374775" y1="55.19839476539836" y2="52.563006222186495" /><path d="M 173.08426987136738 54.67131705675599 a86.0,86.0 0 0,1 12.851231095245387,41.99856678651699" fill="none" id="id51" stroke="none" /><text fill="#e1ed5e" style="font-size:6.75px; font-family:Arial;" text-anchor="middle"><textPath startOffset="22.20632615414155" xlink:href="#id51">March</textPath></text><path d="M 118.89224826269711 90.83032412892265 l 28.662915427010663 -13.912036319401398 a52.86075133025443,52.86075133025443 0 0,0 0.3902679219583065,0.8220037743730466 l -28.898141542810727 13.41659012938781" fill="#b9ff1f" stroke="none" /><path d="M 119.04729006885535 91.15688171328212 l 29.739237579123063 -13.807087240142765 a53.788075726465536,53.788075726465536 0 0,0 0.3826578042159042,0.8431357483756633 l -29.972497700302313 13.293129482925039" fill="#adff20" stroke="none" /><path d="M 119.196687751892 91.48605970444005 l 23.118155886347058 -10.253154164077472 a46.28984582589982,46.28984582589982 0 0,0 0.31677528024437196,0.7311610217812021 l -23.29122187643411 9.853693997709668" fill="#ffe815" stroke="none" /><path d="M 119.34039704204932 91.81776055985345 l 31.31465641144523 -13.24812599179274 a55.0017727252754,55.0017727252754 0 0,0 0.36138341994772655,0.8751186160791639 l -31.538061518279154 12.707132805260272" fill="#9dff22" stroke="none" /><path d="M 119.47837535516314 92.15188598940014 l 29.31704450239623 -11.812253512593234 a52.607252829077886,52.607252829077886 0 0,0 0.33119134033372666,0.8428458363829675 l -29.516029392611657 11.305858671314482" fill="#bdff1f" stroke="none" /><path d="M 119.61058180528143 92.48833698450437 l 31.77949791833566 -12.172860628739347 a55.03108907790365,55.03108907790365 0 0,0 0.33122272139073083,0.8875122197506538 l -31.98432522822802 11.624025271959361" fill="#9cff22" stroke="none" /><path d="M 119.7369772167798 92.82701384747503 l 33.623320515847794 -12.219683379734613 a56.77496812594518,56.77496812594518 0 0,0 0.32590702355733103,0.9213830427083534 l -33.82868062021493 11.639102710599644" fill="#86ff25" stroke="none" /><path d="M 119.85752413597 93.16781622104841 l 29.97156341911695 -10.312022184628047 a52.69593688980356,52.69593688980356 0 0,0 0.28772660623889956,0.8602659301206154 l -30.14462731912762 9.794583151585117" fill="#bcff1f" stroke="none" /><path d="M 119.97218684219823 93.5106431181261 l 30.12604429391157 -9.78854516067683 a52.67639754077682,52.67639754077682 0 0,0 0.2727747317812109,0.8647704421637424 l -30.290074509460986 9.268524552086667" fill="#bcff1f" stroke="none" /><path d="M 120.08093135843002 93.85539295169968 l 30.23634865671795 -9.25208486373017 a52.62021275096476,52.62021275096476 0 0,0 0.25757369350127557,0.8684104477442821 l -30.39112824733093 8.73024502923936" fill="#bdff1f" stroke="none" /><path d="M 120.18372546131832 94.20196356495316 l 32.52470923448383 -9.343143788903113 a54.840080476379434,54.840080476379434 0 0,0 0.252821204443754,0.9095323880722846 l -32.68071720949395 8.781900097411876" fill="#9fff22" stroke="none" /><path d="M 120.28053869075195 94.5502522615342 l 30.57176646267321 -8.215186868622592 a52.65631374520128,52.65631374520128 0 0,0 0.22768506848821315,0.8773634474698633 l -30.708647863031725 7.687726995603878" fill="#bcff1f" stroke="none" /><path d="M 120.37134235888165 94.90015583598534 l 32.835638821983025 -8.220206507156066 a54.848943437986506,54.848943437986506 0 0,0 0.22139958780432473,0.917844226285065 l -32.97227121004817 7.6537770492115955" fill="#9fff22" stroke="none" /><path d="M 120.53481517161879 95.60439243477599 l 61.60444551485638 -13.186822695672053 a84.0,84.0 0 0,0 0.2904828163400124,1.4164973753463528 l -61.822307627111385 12.124449664162288" fill="#4dd2ff" stroke="none" /><path d="M 120.6074358757038 95.95851677861258 l 31.13165995400216 -6.105469992333128 a52.72470670185781,52.72470670185781 0 0,0 0.16699741420662204,0.8921068643107913 l -31.23214309211864 5.568685050559774" fill="#bbff1f" stroke="none" /><path d="M 120.67395015179393 96.31383870115 l 31.283630409274455 -5.577865229213969 a52.77700602793403,52.77700602793403 0 0,0 0.1517669118363288,0.8957369046903038 l -31.375009182631008 5.038542536207827" fill="#baff1f" stroke="none" /><path d="M 120.73433829027371 96.67025291283417 l 31.534064619521846 -5.064085399947713 a52.9380993856263,52.9380993856263 0 0,0 0.13674190019975457,0.9009582718428101 l -31.616562413160903 4.520528015712821" fill="#b8ff1f" stroke="none" /><path d="M 120.78858239683441 97.02765380044208 l 35.49209834228447 -5.074651152648541 a56.85304909013276,56.85304909013276 0 0,0 0.13017724123880137,0.9699716517472281 l -35.57419158258111 4.462961158836649" fill="#85ff25" stroke="none" /><path d="M 120.83666639777658 97.38593545837742 l 31.272459870455034 -3.9232872915503694 a52.5175971406651,52.5175971406651 0 0,0 0.10480923606023823,0.897941528642315 l -31.33535945951886 3.384402024583202" fill="#beff1f" stroke="none" /><path d="M 120.94382443527127 98.46500227214037 l 31.62638445652557 -2.317935219100933 a52.711212803548065,52.711212803548065 0 0,0 0.05853306333424891,0.905480582433777 l -31.661598110864233 1.7731955724141206" fill="#bbff1f" stroke="none" /><path d="M 120.96714384426684 98.82574320788733 l 31.72753092343796 -1.7768881141147377 a52.777248934855805,52.777248934855805 0 0,0 0.04299182364942497,0.9074894482556927 l -31.753416355320883 1.2304875592360451" fill="#baff1f" stroke="none" /><path d="M 120.98425023603335 99.18683210126433 l 31.694039814742627 -1.2281866384886693 a52.71782782911612,52.71782782911612 0 0,0 0.027333705573243525,0.9070726170270861 l -31.710485214771516 0.6824438740365841" fill="#bbff1f" stroke="none" /><line stroke="#e1ed5e" stroke-width="0.3" x1="184.98032266829074" x2="189.97916517819016" y1="98.17113171792111" y2="98.06355123074" /><path d="M 185.9800911702706 98.14961562048488 a86.0,86.0 0 0,1 -9.607161424134198,41.387399972396054" fill="none" id="id52" stroke="none" /><text fill="#e1ed5e" style="font-size:6.75px; font-family:Arial;" text-anchor="middle"><textPath startOffset="21.466115282336823" xlink:href="#id52">April</textPath></text><path d="M 120.99513854157772 99.54816195383933 l 33.7473932777812 -0.7262803344427199 a54.75520754149543,54.75520754149543 0 0,0 0.012168674469722236,0.9424772480297576 l -33.75489495936864 0.1452668283524996" fill="#a0ff22" stroke="none" /><path d="M 120.9904718944345 100.63252640178507 l 52.63328246373785 1.5860501344780393 a73.65717404054924,73.65717404054924 0 0,0 -0.049097301751210146,1.266983199242651 l -52.598183029135434 -2.4918105807346964" fill="#3effb3" stroke="none" /><path d="M 120.9764740272857 100.99374915477107 l 31.570459024647594 1.4956334859075289 a52.60586658440361,52.60586658440361 0 0,0 -0.05063602516164676,0.904140244618881 l -31.540036648598416 -2.038845446861833" fill="#bdff1f" stroke="none" /><path d="M 120.95626037817324 101.35467743843564 l 33.28794522895917 2.1518356595969728 a54.35742337579595,54.35742337579595 0 0,0 -0.06839572322514782,0.9332053027520408 l -33.24597294706968 -2.724514098845784" fill="#a5ff21" stroke="none" /><path d="M 120.92983693683757 101.71520430193887 l 31.710955927816148 2.598719148654889 a52.81726052113041,52.81726052113041 0 0,0 -0.0820564022876557,0.9054855615945606 l -31.661524929251417 -3.14418609879802" fill="#baff1f" stroke="none" /><path d="M 120.89721153311464 102.0752229133903 l 31.64952446565227 3.1429943782188037 a52.80520103007426,52.80520103007426 0 0,0 -0.09760839870294129,0.9037325463724614 l -31.590733765448277 -3.6873232464760566" fill="#baff1f" stroke="none" /><path d="M 120.8583938346157 102.4346265915055 l 31.457817445353744 3.671809031435674 a52.6713823504522,52.6713823504522 0 0,0 -0.11286346245964525,0.8996328431546412 l -31.389952473647252 -4.21275962887771" fill="#bcff1f" stroke="none" /><path d="M 120.81339534386255 102.79330883721812 l 31.36140717703462 4.2089286427280825 a52.642581128020126,52.642581128020126 0 0,0 -0.12826226763574775,0.8970660011095549 l -31.284310858382273 -4.748140115818046" fill="#bcff1f" stroke="none" /><path d="M 120.76222939487914 103.15116336523771 l 31.436616743953667 4.7712561655348 a52.79663123199346,52.79663123199346 0 0,0 -0.14410525132627963,0.8973435375679476 l -31.3498297382661 -5.311678932795953" fill="#baff1f" stroke="none" /><path d="M 120.64145759157962 103.86396538481128 l 31.038153125686225 5.810168625642379 a52.57728628162884,52.57728628162884 0 0,0 -0.17418120621764827,0.8881462179250801 l -30.933541986492916 -6.343578570635404" fill="#bdff1f" stroke="none" /><path d="M 120.5718875245553 104.21870165774334 l 30.904557638090246 6.337634715531734 a52.54769875273877,52.54769875273877 0 0,0 -0.1893367685211601,0.8845183490750174 l -30.790886830844645 -6.868666884022921" fill="#beff1f" stroke="none" /><path d="M 120.49622156327973 104.57218783832717 l 30.964860424601802 6.907475985842527 a52.725948458794136,52.725948458794136 0 0,0 -0.20522805656174634,0.8841170963507402 l -30.841371802109503 -7.439461739541833" fill="#bbff1f" stroke="none" /><path d="M 120.41448212921028 104.9243191809786 l 31.079729977544265 7.496957772397694 a52.97114310308873,52.97114310308873 0 0,0 -0.22144128730040052,0.8845478667404691 l -30.946077375948803 -8.030833478535559" fill="#b8ff1f" stroke="none" /><path d="M 120.32669344350535 105.2749913415812 l 30.58354650160831 7.936752892899877 a52.59660366398567,52.59660366398567 0 0,0 -0.2349613603622678,0.8743786296795036 l -30.442397064904267 -8.462022455754928" fill="#bdff1f" stroke="none" /><path d="M 120.23288151984713 105.62410040840565 l 30.48603223826974 8.474151652286075 a52.64189324074596,52.64189324074596 0 0,0 -0.2501927882705867,0.8709539181801456 l -30.335646813113055 -8.997663045970803" fill="#bcff1f" stroke="none" /><path d="M 120.13307415673323 105.97154293290107 l 30.378776642074353 9.010455509919728 a52.686880230866606,52.686880230866606 0 0,0 -0.26537435088579014,0.8672587331519443 l -30.21917551868243 -9.53204121562373" fill="#bcff1f" stroke="none" /><path d="M 120.02730092923936 106.31721596034902 l 30.215630786832723 9.530923100072602 a52.68316333615839,52.68316333615839 0 0,0 -0.280243694553602,0.8625014051247971 l -30.047094841262876 -10.049623405175193" fill="#bcff1f" stroke="none" /><path d="M 119.9155931802556 106.66101706037122 l 16.0256076980569 5.359963186303818 a37.89820426703834,37.89820426703834 0 0,0 -0.2122464910757183,0.6168876534462504 l -15.93097037603795 -5.6350235428393685" fill="#ff6609" stroke="none" /><path d="M 119.67450827220406 107.3425965602758 l 29.755372578820754 11.10481102369621 a52.760022436648924,52.760022436648924 0 0,0 -0.324865367134935,0.8481209613317736 l -29.559812932092314 -11.615355551861127" fill="#bbff1f" stroke="none" /><path d="M 119.54520255179757 107.68017299344265 l 29.565177442715353 11.617463504925357 a52.76578624097816,52.76578624097816 0 0,0 -0.3394533227528286,0.8424953087081404 l -29.360821505705132 -12.124658181476311" fill="#bbff1f" stroke="none" /><path d="M 119.41010516605496 108.01547362559984 l 29.37524379493251 12.130613918342952 a52.78138986966455,52.78138986966455 0 0,0 -0.354009855926117,0.8367747265884392 l -29.162082957814082 -12.634463170597554" fill="#baff1f" stroke="none" /><path d="M 119.12269723197855 108.67885076344098 l 28.971101797196344 13.14855670725426 a52.81523664578647,52.81523664578647 0 0,0 -0.38284855405237267,0.8246217256225289 l -28.74047862630414 -13.64529850015562" fill="#baff1f" stroke="none" /><path d="M 118.97047184881838 109.00673069616215 l 28.804889302115093 13.675879163389002 a52.88653820342876,52.88653820342876 0 0,0 -0.39752227734917756,0.8190136335485435 l -28.565213768151203 -14.16968175290282" fill="#b9ff1f" stroke="none" /><line stroke="#e1ed5e" stroke-width="0.3" x1="174.80103733775053" x2="179.2010983576182" y1="140.37084112569926" y2="142.7455964860345" /><path d="M 175.68104954172406 140.8457921977663 a86.0,86.0 0 0,1 -30.038265399797805,32.042727171017184" fill="none" id="id53" stroke="none" /><text fill="#e1ed5e" style="font-size:6.75px; font-family:Arial;" text-anchor="middle"><textPath startOffset="22.206326154141568" xlink:href="#id53">May</textPath></text><path d="M 118.30583269289576 110.29060199501025 l 27.55393960688883 15.489414256423444 a52.60920027250248,52.60920027250248 0 0,0 -0.4505552215728219,0.7855810062248618 l -27.28323238916363 -15.961415108506621" fill="#bdff1f" stroke="none" /><path d="M 118.12598468904814 110.60418214915192 l 27.35989682175067 16.00626583642352 a52.69802044486534,52.69802044486534 0 0,0 -0.4647943428207085,0.7790220534881559 l -27.080321603231734 -16.47484998379778" fill="#bbff1f" stroke="none" /><path d="M 117.94076556474637 110.91462005526583 l 27.043390956820538 16.452382493627482 a52.65479243590239,52.65479243590239 0 0,0 -0.47774284999920397,0.7702735908337742 l -26.75618346715337 -16.91545241582653" fill="#bcff1f" stroke="none" /><path d="M 117.75023020441432 111.22182372390056 l 26.70599588795556 16.88372346581285 a52.59541635170422,52.59541635170422 0 0,0 -0.49037746334870713,0.7610767129724253 l -26.4114135612298 -17.34092177870673" fill="#bdff1f" stroke="none" /><path d="M 117.55443506779139 111.5257021239791 l 26.637105078527856 17.489103887116414 a52.86540634824676,52.86540634824676 0 0,0 -0.5059896431999025,0.7563858630075309 l -26.33211232991723 -17.945026664329752" fill="#b9ff1f" stroke="none" /><path d="M 117.35343817320211 111.8261652097733 l 26.258882391781636 17.895121317732187 a52.77678824931451,52.77678824931451 0 0,0 -0.5180647263147486,0.746310877349494 l -25.94695675830475 -18.344473457268702" fill="#baff1f" stroke="none" /><path d="M 117.14729908036423 112.12312394758627 l 26.03723006471337 18.4082965980223 a52.887344403126036,52.887344403126036 0 0,0 -0.531946469787204,0.7388271211813991 l -25.716503802550566 -18.853757324654833" fill="#b9ff1f" stroke="none" /><path d="M 116.93607887273984 112.41649034213515 l 25.48009525187211 18.680437130036353 a52.594208099170906,52.594208099170906 0 0,0 -0.5415669018352117,0.7255173666065088 l -25.154767083341806 -19.116267376152177" fill="#bdff1f" stroke="none" /><path d="M 116.71984013943494 112.70617746262583 l 25.219962326808048 19.165812247771335 a52.67609286011201,52.67609286011201 0 0,0 -0.5548377445830835,0.7172025777542759 l -24.886317765006897 -19.597092819638863" fill="#bcff1f" stroke="none" /><path d="M 116.498646956653 112.99209946851258 l 24.94395713904724 19.642481782915816 a52.74945807957681,52.74945807957681 0 0,0 -0.567890839076461,0.7085311389561667 l -24.60214838791592 -20.06894075545023" fill="#bbff1f" stroke="none" /><path d="M 116.27256486870786 113.27417163493432 l 24.527563540328128 20.008098959689463 a52.65320516481009,52.65320516481009 0 0,0 -0.5789445567133614,0.6973760139748099 l -24.179522983721224 -20.427336230778042" fill="#bcff1f" stroke="none" /><path d="M 116.0416608686014 113.55231037782055 l 24.236543996065702 20.475508702673547 a52.727850880677195,52.727850880677195 0 0,0 -0.5917006197269805,0.6882814970661721 l -23.880500866767942 -20.889667298901248" fill="#bbff1f" stroke="none" /><path d="M 115.80600337817218 113.82643327865902 l 23.84941538148415 20.862475011393283 a52.68655042189954,52.68655042189954 0 0,0 -0.6029879112600077,0.6774633105315774 l -23.486768620575802 -21.26991249166573" fill="#bcff1f" stroke="none" /><path d="M 115.56566222782051 114.09645910891815 l 23.672070563226402 21.43772425702118 a52.936545618937004,52.936545618937004 0 0,0 -0.6174760475074736,0.6701482965688714 l -23.299548107723208 -21.84202380839139" fill="#b8ff1f" stroke="none" /><path d="M 115.32070863581623 114.36230785411682 l 23.040291580004908 21.59898530718428 a52.581184309515805,52.581184309515805 0 0,0 -0.6246981431409229,0.654993505572994 l -22.66508688548502 -21.99238592933978" fill="#bdff1f" stroke="none" /><path d="M 115.07121518719521 114.62390073753431 l 22.73671568879413 22.06188878604577 a52.68099078502611,52.68099078502611 0 0,0 -0.6370872138676343,0.6453659840935702 l -22.353587849870962 -22.449995264120005" fill="#bcff1f" stroke="none" /><path d="M 114.81725581225074 114.88116024355365 l 22.36692163752687 22.463386558248644 a52.69988831533281,52.69988831533281 0 0,0 -0.6483342217169789,0.6345314922154215 l -21.976937463434098 -22.845068153386634" fill="#bbff1f" stroke="none" /><path d="M 114.55890576462653 115.13401014063108 l 21.953989677245353 22.82121388614292 a52.66678805919031,52.66678805919031 0 0,0 -0.6587465686134951,0.6228859975117318 l -21.55790727424105 -23.195734520400574" fill="#bcff1f" stroke="none" /><path d="M 114.29624159901734 115.38237550388516 l 21.592829848680683 23.233310281125668 a52.718086441226795,52.718086441226795 0 0,0 -0.670022905828964,0.6120500383849942 l -21.189707393384854 -23.601553086097244" fill="#bbff1f" stroke="none" /><path d="M 114.0293411484842 115.62618273729858 l 21.13223673466056 23.537541026959612 a52.632060745476956,52.632060745476956 0 0,0 -0.6793486927307872,0.5994462348168202 l -20.723945689023186 -23.89781040354872" fill="#bcff1f" stroke="none" /><path d="M 113.75828350139079 115.86535959552629 l 20.788433188502964 23.97217414002498 a52.730491446438926,52.730491446438926 0 0,0 -0.6908561254273362,0.5887625778927359 l -20.372711586498582 -24.326461108140663" fill="#bbff1f" stroke="none" /><path d="M 113.48314897796784 116.09983520530334 l 20.46356742640751 24.434949418428072 a52.871999386550335,52.871999386550335 0 0,0 -0.7027692567787126,0.5783312540414706 l -20.039928041084107 -24.783575791326722" fill="#b9ff1f" stroke="none" /><path d="M 112.92097659922987 116.55440617244103 l 19.586557113668874 25.09437421306951 a52.83332902340848,52.83332902340848 0 0,0 -0.7217316321365139,0.5533930393066652 l -19.151696753038866 -25.427806594203545" fill="#baff1f" stroke="none" /><path d="M 112.63410532772338 116.77436683061366 l 19.072842983508984 25.3231120375444 a52.702260845870505,52.702260845870505 0 0,0 -0.7293366235586285,0.5395457981325601 l -18.634121389531792 -25.647667784416733" fill="#bbff1f" stroke="none" /><path d="M 112.34349029814194 116.9893568818739 l 18.58158679943603 25.575360124409563 a52.612883662807704,52.612883662807704 0 0,0 -0.7372635173823899,0.5260179440918575 l -18.138595954204757 -25.89142233034564" fill="#bdff1f" stroke="none" /><path d="M 112.04921762599082 117.19931262002967 l 18.251180107973315 26.052127375007636 a52.80910115198641,52.80910115198641 0 0,0 -0.7489917717796627,0.5151633703016588 l -17.80003145157077 -26.36243153467439" fill="#baff1f" stroke="none" /><path d="M 111.7513745106137 117.40417183066458 l 17.831996820376972 26.409773296340752 a52.86622406508257,52.86622406508257 0 0,0 -0.7585681377567411,0.5027375982488931 l -17.374753983880264 -26.712808915680966" fill="#b9ff1f" stroke="none" /><path d="M 111.45004920935366 117.60387380957326 l 17.20777231242565 26.456083008302567 a52.559970787351475,52.559970787351475 0 0,0 -0.7626656944184628,0.4867693304562844 l -16.74982481596026 -26.74836676758266" fill="#bdff1f" stroke="none" /><line stroke="#e1ed5e" stroke-width="0.3" x1="143.8653032363475" x2="146.44561519142675" y1="172.8068346515853" y2="177.08958963109032" /><path d="M 144.38136562736335 173.6633856474863 a86.0,86.0 0 0,1 -40.68145358897372,12.25698825130547" fill="none" id="id54" stroke="none" /><text fill="#e1ed5e" style="font-size:6.75px; font-family:Arial;" text-anchor="middle"><textPath startOffset="21.466115282336833" xlink:href="#id54">June</textPath></text><path d="M 110.8373102113329 117.98757091392108 l 16.41737517188131 27.24926152024779 a52.8127719781405,52.8127719781405 0 0,0 -0.7827157837928225,0.4624422815459588 l -15.945891517060106 -27.527822374087496" fill="#baff1f" stroke="none" /><path d="M 110.5260780823613 118.17145234162733 l 15.959895453472624 27.551997747015964 a52.84071046219523,52.84071046219523 0 0,0 -0.7909782138357604,0.4491380730792621 l -15.483268472715665 -27.822638985889856" fill="#baff1f" stroke="none" /><path d="M 110.21172684928248 118.3499491758327 l 10.267747673171616 18.450615721885676 a42.11520454072411,42.11520454072411 0 0,0 -0.6364954854624636,0.34706808803912703 l -9.948629375840504 -18.624624461684572" fill="#ffa90f" stroke="none" /><path d="M 109.89434966115114 118.52300852407294 l 14.950956421949561 27.989378052220047 a52.73226089772256,52.73226089772256 0 0,0 -0.8043153759946133,0.4207797904281029 l -14.466950143428452 -28.24258726159287" fill="#bbff1f" stroke="none" /><path d="M 109.57404056367764 118.69057910512821 l 14.435176957698184 28.18055919336361 a52.66256859843703,52.66256859843703 0 0,0 -0.8103668216177853,0.40633474729841623 l -13.947956228397638 -28.42486178157133" fill="#bcff1f" stroke="none" /><path d="M 109.2508944713604 118.85261126421891 l 13.98360228964025 28.497505712143447 a52.74348696675399,52.74348696675399 0 0,0 -0.8184968689504741,0.3929282370690406 l -13.490992752689545 -28.733988225712046" fill="#bbff1f" stroke="none" /><path d="M 108.92500713936063 119.00905698771935 l 13.420801940735817 28.5844912983025 a52.578332247210106,52.578332247210106 0 0,0 -0.8225554701134503,0.37759487253096036 l -12.926778474854947 -28.811273241167534" fill="#bdff1f" stroke="none" /><path d="M 108.59647513512805 119.15986991738527 l 12.919058945049086 28.794067911706478 a52.559474503381985,52.559474503381985 0 0,0 -0.8286359694725095,0.36324965765033673 l -12.421502300918823 -29.012182122651268" fill="#bdff1f" stroke="none" /><path d="M 108.2653958097858 119.30500536409082 l 12.452213192422217 29.083911769827644 a52.63750206992728,52.63750206992728 0 0,0 -0.8360052019562959,0.3494502422197612 l -11.94973653096846 -29.293947055067378" fill="#bcff1f" stroke="none" /><path d="M 107.93186726928326 119.44442032107085 l 11.895304333402795 29.160510312805553 a52.49339020949492,52.49339020949492 0 0,0 -0.8395915913561708,0.3340908213963126 l -11.391591666004759 -29.360947978607935" fill="#beff1e" stroke="none" /><path d="M 107.59598834532513 119.57807347666477 l 11.481568822136776 29.592857151435737 a52.74214260258347,52.74214260258347 0 0,0 -0.8492232873734121,0.3211035821364719 l -10.970475314003089 -29.78610898367884" fill="#bbff1f" stroke="none" /><path d="M 107.2578585660854 119.70592522655815 l 11.0024391707391 29.87289455066902 a52.834627319024875,52.834627319024875 0 0,0 -0.8561233427658096,0.30697537130626307 l -10.486596267343556 -30.057857463015242" fill="#baff1f" stroke="none" /><path d="M 106.91757812671514 119.82793768551818 l 10.425656110144475 29.883183954837197 a52.64962856978944,52.64962856978944 0 0,0 -0.8582648290024678,0.29117002871517106 l -9.90972154820478 -30.05821697045049" fill="#bcff1f" stroke="none" /><path d="M 106.57524785965236 119.94407469862006 l 16.43762025931126 49.858671994851136 a73.49840505081534,73.49840505081534 0 0,0 -1.2049491442312352,0.38578666494301045 l -15.576949769989085 -50.13423150645385" fill="#3dffb1" stroke="none" /><path d="M 106.2309692047433 120.05430185196036 l 9.403123226523704 30.263842644629843 a52.69099080231013,52.69099080231013 0 0,0 -0.8684605018199222,0.2616600251082153 l -8.880787750263536 -30.421218038843783" fill="#bcff1f" stroke="none" /><path d="M 105.88484417918355 120.15858648285463 l 8.842597269245253 30.290396203806573 a52.5547085020547,52.5547085020547 0 0,0 -0.8705783360577483,0.24603413374187574 l -8.3198877650829 -30.438119130886967" fill="#bdff1f" stroke="none" /><path d="M 105.53697534728816 120.25689768951611 l 8.322973575963173 30.44940849942669 a52.566412008828934,52.566412008828934 0 0,0 -0.8748792087711517,0.23106355068985138 l -7.797603924380525 -30.588163399420125" fill="#bdff1f" stroke="none" /><path d="M 105.18746579009965 120.34920634021253 l 7.836445520194481 30.740529830310102 a52.7236513131632,52.7236513131632 0 0,0 -0.8813554576109631,0.21661572820902683 l -7.306136777840306 -30.870866816833157" fill="#bbff1f" stroke="none" /><path d="M 104.48393922423573 120.51570834832081 l 6.795266701901939 31.09090084267098 a52.82482937517146,52.82482937517146 0 0,0 -0.8899940800700894,0.1865069127290422 l -6.259081160402472 -31.203263736126566" fill="#baff1f" stroke="none" /><path d="M 104.13013068566511 120.58985236759428 l 6.205279263802719 30.93504628917498 a52.551269065683854,52.551269065683854 0 0,0 -0.8884477339844733,0.17027312274155282 l -5.671863915246542 -31.037276610265003" fill="#bdff1f" stroke="none" /><path d="M 103.7750983002368 120.6578951692458 l 5.70357109917843 31.210783001273644 a52.72764880724658,52.72764880724658 0 0,0 -0.8942383978362576,0.15547480787570864 l -5.165483729870123 -31.30433638767036" fill="#bbff1f" stroke="none" /><path d="M 103.06178313531738 120.77559828337769 l 4.599708064728254 31.211121999893418 a52.548240058249796,52.548240058249796 0 0,0 -0.8960010642052445,0.12417758311855587 l -4.0617784093361795 -31.285674148504576" fill="#beff1f" stroke="none" /><path d="M 102.70371172650421 120.8252237178851 l 4.0717124315204645 31.3621905287008 a52.62539860434218,52.62539860434218 0 0,0 -0.8993244004804082,0.1088956605699688 l -3.5312606079886764 -31.427631717996118" fill="#bcff1f" stroke="none" /><path d="M 102.34483914955558 120.86867818915974 l 3.545015931856473 31.55005181117783 a52.7485890591239,52.7485890591239 0 0,0 -0.9031749143193951,0.09361777272862953 l -3.0014084209314755 -31.60639895236222" fill="#bbff1f" stroke="none" /><path d="M 101.98527174616119 120.90594882070398 l 2.996116392803507 31.55067113101234 a52.69261053079284,52.69261053079284 0 0,0 -0.90369252836652,0.07797439388731248 l -2.4525795466954454 -31.597569777178315" fill="#bcff1f" stroke="none" /><path d="M 101.62511606390274 120.93702456842531 l 2.4407091970329615 31.44463928314186 a52.539220044753634,52.539220044753634 0 0,0 -0.9022666317984873,0.06222558953981892 l -1.8990798044555437 -31.481993217197964" fill="#beff1f" stroke="none" /><path d="M 101.26447882468166 120.96189622390904 l 1.9030743391234595 31.548212610941263 a52.6055598097136,52.6055598097136 0 0,0 -0.904344512337854,0.04674428149675245 l -1.3597417583721259 -31.576296699200217" fill="#bdff1f" stroke="none" /><path d="M 100.90346689309514 120.98055641714683 l 1.3577168585889157 31.52927392009741 a52.55849345258153,52.55849345258153 0 0,0 -0.9042054300504164,0.03114266325958581 l -0.8147910768638469 -31.54797338178309" fill="#bdff1f" stroke="none" /><line stroke="#e1ed5e" stroke-width="0.3" x1="102.19456741930631" x2="102.32365962044197" y1="184.97166512339345" y2="189.96999836594603" /><path d="M 102.22038585953345 185.97133177190398 a86.0,86.0 0 0,1 -42.740103519485714,-10.115201625700543" fill="none" id="id55" stroke="none" /><text fill="#e1ed5e" style="font-size:6.75px; font-family:Arial;" text-anchor="middle"><textPath startOffset="22.20632615414155" xlink:href="#id55">July</textPath></text><path d="M 100.54218724476979 120.99299961872073 l 0.8147894819621546 31.547911628632416 a52.55843167883849,52.55843167883849 0 0,0 -0.9046064687978289,0.015573620728252724 l -0.2716233232716577 -31.55726272663983" fill="#bdff1f" stroke="none" /><path d="M 100.18074693466247 120.99922214144158 l 0.2713468643595775 31.525143664047732 a52.52631142648386,52.52631142648386 0 0,0 -0.9041875980440442,0.0 l 0.2713468643595558 -31.525143664047732" fill="#beff1f" stroke="none" /><path d="M 99.81925306533755 120.99922214144158 l -0.2727216612403541 31.684867894796984 a52.68604157377892,52.68604157377892 0 0,0 -0.9068028192740211,-0.015611432893522766 l 0.8180841704070431 -31.675478984624302" fill="#bcff1f" stroke="none" /><path d="M 99.45781275523022 120.99299961872073 l -0.8238759883218172 31.899732934619344 a52.91037030409035,52.91037030409035 0 0,0 -0.9102590464869605,-0.0313511620497056 l 1.3728553864834208 -31.880824974143543" fill="#b9ff1f" stroke="none" /><path d="M 99.09653310690486 120.98055641714683 l -1.3586506377027812 31.550958395233692 a52.58019802365238,52.58019802365238 0 0,0 -0.9039085167485713,-0.046721745504906834 l 1.9015472228648416 -31.522896842966585" fill="#bdff1f" stroke="none" /><path d="M 98.73552117531835 120.96189622390904 l -1.9064597420863396 31.604334124563554 a52.66178333899163,52.66178333899163 0 0,0 -0.9043714359920039,-0.06237074916025876 l 2.4501939388572733 -31.56683503088701" fill="#bcff1f" stroke="none" /><path d="M 98.37488393609728 120.93702456842531 l -2.4520201527303187 31.59036287949822 a52.68538195584479,52.68538195584479 0 0,0 -0.9035685563502261,-0.07796369706009959 l 2.9954330268220866 -31.543474930159455" fill="#bcff1f" stroke="none" /><path d="M 98.01472825383883 120.90594882070398 l -2.991346985240665 31.500446777290385 a52.64216022895739,52.64216022895739 0 0,0 -0.901352612504691,-0.0934288836945846 l 3.5331321943509493 -31.44428852514004" fill="#bcff1f" stroke="none" /><path d="M 96.93821686468263 120.77559828337769 l -4.626698441615 31.394264045862762 a52.733360260946114,52.733360260946114 0 0,0 -0.8968792893629409,-0.1400740997443068 l 5.166413594586458 -31.30997163877135" fill="#bbff1f" stroke="none" /><path d="M 96.58105272829116 120.7198165907248 l -5.182088335190085 31.40496513372865 a52.8296383040151,52.8296383040151 0 0,0 -0.8959680961302173,-0.15577553809551026 l 5.721905402792353 -31.311111017112133" fill="#baff1f" stroke="none" /><path d="M 96.22490169976321 120.6578951692458 l -5.683810104040042 31.10264791880898 a52.617722955016546,52.617722955016546 0 0,0 -0.8895712236440573,-0.17048844220873555 l 6.218348942255794 -31.000202278251773" fill="#bdff1f" stroke="none" /><path d="M 95.86986931433489 120.58985236759428 l -6.2661425344927935 31.238466653684814 a52.86073353104033,52.86073353104033 0 0,0 -0.8905989942089519,-0.1866336783683155 l 6.802932990131133 -31.125976994589955" fill="#b9ff1f" stroke="none" /><path d="M 95.51606077576429 120.51570834832081 l -6.742871158560012 30.851171526059304 a52.57944103354701,52.57944103354701 0 0,0 -0.882533024786259,-0.20086164316050248 l 7.272924332739135 -30.730533149321115" fill="#bdff1f" stroke="none" /><path d="M 95.16358092515715 120.4354850818985 l -7.30009374530186 30.845332987076606 a52.697412130548315,52.697412130548315 0 0,0 -0.8809168300458228,-0.2165079242252706 l 7.829963860090893 -30.715103804537303" fill="#bcff1f" stroke="none" /><path d="M 94.81253420990036 120.34920634021253 l -7.847787455493196 30.78502157079191 a52.769565956442015,52.769565956442015 0 0,0 -0.8782603633555219,-0.2319565443464198 l 8.376538261660208 -30.645373677141908" fill="#bbff1f" stroke="none" /><path d="M 94.46302465271185 120.25689768951611 l -8.335238142073202 30.494278134076414 a52.61292763733664,52.61292763733664 0 0,0 -0.8715427466569892,-0.24630668581045825 l 8.858912056834805 -30.346282654927435" fill="#bdff1f" stroke="none" /><path d="M 94.11515582081647 120.15858648285463 l -8.929764974397395 30.58898995910727 a52.865765473566455,52.865765473566455 0 0,0 -0.8713411631321027,-0.2625279447311502 l 9.454981111969744 -30.430746645270396" fill="#b9ff1f" stroke="none" /><path d="M 93.76903079525671 120.05430185196036 l -9.368463281976386 30.152290016574078 a52.574177701237645,52.574177701237645 0 0,0 -0.8619127229491416,-0.27595723558162655 l 9.886097350016467 -29.986559934332746" fill="#bdff1f" stroke="none" /><path d="M 93.42475214034765 119.94407469862007 l -9.89051219642866 29.999951068554164 a52.58827781983925,52.58827781983925 0 0,0 -0.8572647233541397,-0.2908307385794198 l 10.405446652720025 -29.825257343076622" fill="#bdff1f" stroke="none" /><path d="M 93.08242187328487 119.8279376855182 l -10.401390689526098 29.813631686815018 a52.57596495173537,52.57596495173537 0 0,0 -0.8519320216234574,-0.30547251266467756 l 10.91304227177928 -29.630171633110383" fill="#bdff1f" stroke="none" /><path d="M 92.7421414339146 119.70592522655815 l -10.947160283738196 29.72280598061377 a52.67468253414807,52.67468253414807 0 0,0 -0.8481370846092222,-0.3206928731937331 l 11.457167589107701 -29.529964857313406" fill="#bcff1f" stroke="none" /><path d="M 92.40401165467489 119.57807347666478 l -11.455429269671354 29.525484473181212 a52.669876746342226,52.669876746342226 0 0,0 -0.842414358408066,-0.3352140586615321 l 11.961964704121279 -29.323923570113614" fill="#bcff1f" stroke="none" /><path d="M 92.06813273071674 119.44442032107085 l -11.910270706190495 29.19719933359805 a52.533014401109796,52.533014401109796 0 0,0 -0.8343456962571879,-0.3487565687029453 l 12.411087861945145 -28.98785772187513" fill="#beff1f" stroke="none" /><path d="M 91.7346041902142 119.30500536409082 l -12.520137406283913 29.24255841460168 a52.81007801473648,52.81007801473648 0 0,0 -0.832586904780519,-0.3649816315820766 l 13.021644985722176 -29.02271222972515" fill="#baff1f" stroke="none" /><path d="M 91.40352486487194 119.15986991738527 l -12.904540520050828 28.761709168151764 a52.52400799877736,52.52400799877736 0 0,0 -0.8217056008650675,-0.37720473924248216 l 13.397714116683314 -28.535317358575206" fill="#beff1f" stroke="none" /><path d="M 91.07499286063937 119.00905698771935 l -13.44350619141774 28.632848278676516 a52.631753970786946,52.631753970786946 0 0,0 -0.8167629466670202,-0.3920958490027045 l 13.934381806085002 -28.397198153174248" fill="#bcff1f" stroke="none" /><path d="M 90.7491055286396 118.85261126421891 l -13.952865085611904 28.43486565493717 a52.67371195347355,52.67371195347355 0 0,0 -0.8105382945528022,-0.4064207273877534 l 14.440257287847468 -28.190477086640115" fill="#bcff1f" stroke="none" /><path d="M 90.42595943632237 118.69057910512821 l -14.399012720850433 28.109958852255414 a52.58324483030053,52.58324483030053 0 0,0 -0.8020424616105656,-0.419590709046937 l 14.880746084987493 -27.85793872426376" fill="#bdff1f" stroke="none" /><path d="M 90.10565033884886 118.52300852407294 l -14.905414048449906 27.9041191113669 a52.635600695056816,52.635600695056816 0 0,0 -0.7954923306762934,-0.4337658452628452 l 15.383529190994839 -27.64341261434429" fill="#bcff1f" stroke="none" /><line stroke="#e1ed5e" stroke-width="0.3" x1="58.666819895761336" x2="56.23545636021788" y1="174.27360380694188" y2="178.64263932499728" /><path d="M 58.180547188652646 175.14741091055294 a86.0,86.0 0 0,1 -31.652253787137756,-30.449443065178592" fill="none" id="id56" stroke="none" /><text fill="#e1ed5e" style="font-size:6.75px; font-family:Arial;" text-anchor="middle"><textPath startOffset="22.20632615414155" xlink:href="#id56">August</textPath></text><path d="M 89.7882731507175 118.34994917583269 l -15.497403041062448 27.848038079952374 a52.86977762582615,52.86977762582615 0 0,0 -0.7914133232990486,-0.4493851395881765 l 15.974465131282704 -27.577149774569566" fill="#b9ff1f" stroke="none" /><path d="M 89.4739219176387 118.17145234162733 l -26.367082648757624 45.518205545380724 a73.60351778615137,73.60351778615137 0 0,0 -1.0908466447802017,-0.6444914254628531 l 27.146697164566206 -45.05759554762412" fill="#3effb3" stroke="none" /><path d="M 89.1626897886671 117.98757091392108 l -27.09402639833776 44.970173565218005 a73.50145499850129,73.50145499850129 0 0,0 -1.0780941416560845,-0.6622534757433999 l 27.864099739926154 -44.49713162264623" fill="#3effb1" stroke="none" /><path d="M 88.8546689885994 117.79835938074946 l -27.784052218441683 44.36930100429478 a73.35062969331705,73.35062969331705 0 0,0 -1.0643462713748093,-0.6793161481923045 l 28.543680291863417 -43.88447042727867" fill="#3dffaf" stroke="none" /><path d="M 88.54995079064634 117.60387380957326 l -28.664979515631718 44.070961872806436 a73.57309892926176,73.57309892926176 0 0,0 -1.0556874380711616,-0.6996520690770369 l 29.41934165244284 -43.57101178263808" fill="#3effb2" stroke="none" /><path d="M 88.24862548938628 117.40417183066458 l -29.49551705156558 43.68383005205875 a73.7092262716533,73.7092262716533 0 0,0 -1.045418361180263,-0.7190482814533355 l 30.243092297368737 -43.16964098124032" fill="#3effb4" stroke="none" /><path d="M 87.95078237400918 117.19931262002967 l -25.988167985574474 37.09607042382445 a66.29352399776133,66.29352399776133 0 0,0 -0.9289701168159603,-0.6627955126618068 l 26.622865430239322 -36.643230649318426" fill="#33ff51" stroke="none" /><path d="M 87.65650970185807 116.9893568818739 l -30.94572541601855 42.59313697847323 a73.6480126803529,73.6480126803529 0 0,0 -1.019200923034034,-0.7539804772077802 l 31.67431130947115 -42.05414655252569" fill="#3effb3" stroke="none" /><path d="M 87.36589467227662 116.77436683061367 l -6.5162178060001255 8.65161600213754 a31.83104583794545,31.83104583794545 0 0,0 -0.4348291710911199,-0.3334084663256066 l 6.664175705584732 -8.538168193984566" fill="#ff0000" stroke="none" /><path d="M 87.07902340077011 116.55440617244103 l -19.376642981568395 24.825431399231892 a52.49216311073491,52.49216311073491 0 0,0 -0.7075006409310387,-0.5620812982912011 l 19.80110111521679 -24.48821618693556" fill="#beff1e" stroke="none" /><line stroke="#e1ed5e" stroke-width="0.3" x1="26.63291911575756" x2="22.317208475507996" y1="142.92168965132927" y2="145.44649492493687" /><path d="M 25.769776987707644 143.4266507060508 a86.0,86.0 0 0,1 -11.730757126820373,-40.83630448921669" fill="none" id="id57" stroke="none" /><text fill="#e1ed5e" style="font-size:6.75px; font-family:Arial;" text-anchor="middle"><textPath startOffset="21.46611528233685" xlink:href="#id57">September</textPath></text><line stroke="#e1ed5e" stroke-width="0.3" x1="15.007084014347285" x2="10.007500721073583" y1="101.09737516637583" y2="101.16192664675087" /><path d="M 14.007167355692545 101.11028546245083 a86.0,86.0 0 0,1 10.666146001902534,-42.60595125391555" fill="none" id="id58" stroke="none" /><text fill="#e1ed5e" style="font-size:6.75px; font-family:Arial;" text-anchor="middle"><textPath startOffset="22.20632615414155" xlink:href="#id58">October</textPath></text><line stroke="#e1ed5e" stroke-width="0.3" x1="26.266209847984243" x2="21.928928074336255" y1="57.711370442889674" y2="55.22380399835377" /><path d="M 25.398753493254645 57.213857153982495 a86.0,86.0 0 0,1 29.58750427330803,-30.492523968695096" fill="none" id="id59" stroke="none" /><text fill="#e1ed5e" style="font-size:6.75px; font-family:Arial;" text-anchor="middle"><textPath startOffset="21.46611528233685" xlink:href="#id59">November</textPath></text><line stroke="#e1ed5e" stroke-width="0.3" x1="56.762969772571076" x2="54.21961505331055" y1="26.818313649435495" y2="22.513508569990535" /><path d="M 56.25429882871897 25.957352633546506 a86.0,86.0 0 0,1 42.265352541879196,-11.944610805530505" fill="none" id="id60" stroke="none" /><text fill="#e1ed5e" style="font-size:6.75px; font-family:Arial;" text-anchor="middle"><textPath startOffset="22.20632615414155" xlink:href="#id60">December</textPath></text></svg>