<?xml version="1.0" encoding="utf-8" ?>
<svg baseProfile="full" height="200mm" version="1.1" viewBox="0,0,200,200" width="200mm" xmlns="http://www.w3.org/2000/svg" xmlns:ev="http://www.w3.org/2001/xml-events" xmlns:xlink="http://www.w3.org/1999/xlink"><defs /><rect fill="#1a1a1a" height="200" width="200" x="0" y="0" /><text alignment-baseline="middle" fill="#e1ed5e" style="dominant-baseline: central; font-size:9.0px; font-family:Arial;" text-anchor="middle" x="100.0" y="100.0">2017</text><line stroke="#e1ed5e" stroke-width="0.3" x1="100.0" x2="100.0" y1="15.0" y2="10.0" /><path d="M 100.0 14.0 a86.0,86.0 0 0,1 42.46469731375804,11.215312516191453" fill="none" id="id1" stroke="none" /><text fill="#e1ed5e" style="font-size:6.75px; font-family:Arial;" text-anchor="middle"><textPath startOffset="22.20632615414155" xlink:href="#id1">January</textPath></text><line stroke="#e1ed5e" stroke-width="0.3" x1="143.23703022742887" x2="145.7803849466894" y1="26.81831364943548" y2="22.513508569990506" /><path d="M 143.74570117128098 25.957352633546492 a86.0,86.0 0 0,1 28.547481713284135,27.462654790039103" fill="none" id="id2" stroke="none" /><text fill="#e1ed5e" style="font-size:6.75px; font-family:Arial;" text-anchor="middle"><textPath startOffset="19.985693538727396" xlink:href="#id2">February</textPath></text><line stroke="#e1ed5e" stroke-width="0.3" x1="172.23445277983987" x2="176.4835382374775" y1="55.19839476539836" y2="52.563006222186495" /><path d="M 173.08426987136738 54.67131705675599 a86.0,86.0 0 0,1 12.851231095245387,41.99856678651699" fill="none" id="id3" stroke="none" /><text fill="#e1ed5e" style="font-size:6.75px; font-family:Arial;" text-anchor="middle"><textPath startOffset="22.20632615414155" xlink:href="#id3">March</textPath></text><line stroke="#e1ed5e" stroke-width="0.3" x1="184.98032266829074" x2="189.97916517819016" y1="98.17113171792111" y2="98.06355123074" /><path d="M 185.9800911702706 98.14961562048488 a86.0,86.0 0 0,1 -9.607161424134198,41.387399972396054" fill="none" id="id4" stroke="none" /><text fill="#e1ed5e" style="font-size:6.75px; font-family:Arial;" text-anchor="middle"><textPath startOffset="21.466115282336823" xlink:href="#id4">April</textPath></text><path d="M 120.8583938346157 102.4346265915055 l 9.147923342421974 1.0677609025462547 a30.210027949134314,30.210027949134314 0 0,0 -0.06473360301531335,0.5159905079921934 l -9.128188230159813 -1.225069164825843" fill="#ff6509" stroke="none" /><path d="M 120.81339534386255 102.79330883721812 l 5.229953450458616 0.7018977418171842 a26.276843140925457,26.276843140925457 0 0,0 -0.0640228388377791,0.4477755857162237 l -5.217096560604236 -0.7918187995138173" fill="#ff2d04" stroke="none" /><path d="M 120.76222939487914 103.15116336523771 l 2.2004392947092093 0.3339691302431789 a23.22563889021911,23.22563889021911 0 0,0 -0.06339299404883768,0.39474823445545054 l -2.194364546299083 -0.3717965943918344" fill="#ff0000" stroke="none" /><path d="M 120.70491114924044 103.5080841355445 l 5.271102917902027 0.8930959611383208 a26.346227302211986,26.346227302211986 0 0,0 -0.079607707298369,0.446482299322752 l -5.2549487682644695 -0.9836970111942911" fill="#ff2e04" stroke="none" /><path d="M 120.64145759157962 103.86396538481128 l 2.2015474256523775 0.4121173617705833 a23.239788335372197,23.239788335372197 0 0,0 -0.07699017295824871,0.39257123322951337 l -2.1941273197184645 -0.4499523220680416" fill="#ff0000" stroke="none" /><path d="M 120.5718875245553 104.21870165774334 l 5.204897200480988 1.067374513974136 a26.313214019843013,26.313214019843013 0 0,0 -0.0948102206219468,0.4429217867980581 l -5.185752941134598 -1.156810120188363" fill="#ff2e04" stroke="none" /><path d="M 120.49622156327973 104.57218783832717 l 2.588965043583829 0.5775325198150324 a23.652599443629384,23.652599443629384 0 0,0 -0.09206429013302794,0.39661055234675247 l -2.5786401875202483 -0.6220117295103498" fill="#ff0601" stroke="none" /><path d="M 120.41448212921028 104.9243191809786 l 5.132611875446491 1.2380729987078753 a26.27982285821256,26.27982285821256 0 0,0 -0.10986052901338562,0.43883820294967146 l -5.110540032138045 -1.326239041054943" fill="#ff2d04" stroke="none" /><path d="M 120.32669344350535 105.2749913415812 l 2.611607620651782 0.6777397231298006 a23.698115174812692,23.698115174812692 0 0,0 -0.10586503674396662,0.3939631844846304 l -2.5995545075660385 -0.7225938407899792" fill="#ff0701" stroke="none" /><path d="M 120.23288151984713 105.62410040840565 l 3.2640445873924944 0.907301042562874 a24.38779902743978,24.38779902743978 0 0,0 -0.11590866252764352,0.40349326004669417 l -3.2479432879787513 -0.9633517781141502" fill="#ff1101" stroke="none" /><path d="M 120.13307415673323 105.97154293290107 l 2.505022019519311 0.7429986310570135 a23.612887728936933,23.612887728936933 0 0,0 -0.11893387359714257,0.3886827803833338 l -2.4918613734160355 -0.7860083839924045" fill="#ff0601" stroke="none" /><path d="M 120.02730092923936 106.31721596034902 l 2.567765417841216 0.8099508135085919 a23.69247833071401,23.69247833071401 0 0,0 -0.12603016296049563,0.3878809577310346 l -2.5534430038644733 -0.8540306712174217" fill="#ff0701" stroke="none" /><path d="M 119.9155931802556 106.66101706037122 l 2.1774504167471824 0.72827528875438 a23.296012894912124,23.296012894912124 0 0,0 -0.1304678437574474,0.37920062460307685 l -2.164591742046504 -0.7656486164467572" fill="#ff0100" stroke="none" /><path d="M 119.79798401119884 107.00284435728193 l 6.339214079482324 2.24227524989383 a27.724093503349977,27.724093503349977 0 0,0 -0.16301204444220624,0.44853913541767443 l -6.29967777403489 -2.3510621823176354" fill="#ff4206" stroke="none" /><path d="M 119.67450827220406 107.3425965602758 l 10.387404723578287 3.87661643881045 a32.087214794756704,32.087214794756704 0 0,0 -0.19757430594637637,0.5158041676510831 l -10.319136138038404 -4.054844173294677" fill="#ff7f0b" stroke="none" /><path d="M 119.54520255179757 107.68017299344265 l 8.856598757826433 3.4801486663212127 a30.515817163902952,30.515817163902952 0 0,0 -0.19631462488774673,0.48723679932618 l -8.795381518681292 -3.632084833490206" fill="#ff6909" stroke="none" /><path d="M 119.41010516605496 108.01547362559984 l 6.082298753060584 2.5117074235865493 a27.580503955107247,27.580503955107247 0 0,0 -0.18498509144278566,0.43725011245811113 l -6.03816268042549 -2.616032061710824" fill="#ff4006" stroke="none" /><path d="M 119.26925614724726 108.34839909993367 l 7.857752186553315 3.4043686367776496 a29.563527032733575,29.563527032733575 0 0,0 -0.206323735877863,0.46520555652905743 l -7.797987365944179 -3.5391225297993945" fill="#ff5c08" stroke="none" /><path d="M 119.12269723197855 108.67885076344098 l 2.2058078350628474 1.0011075729068877 a23.42235517167821,23.42235517167821 0 0,0 -0.16978461859629873,0.36570096370767546 l -2.1882485996267174 -1.0389286038933936" fill="#ff0300" stroke="none" /><path d="M 118.97047184881838 109.00673069616215 l 2.472620269639895 1.1739415371423954 a23.737149928385787,23.737149928385787 0 0,0 -0.17842056254495067,0.36759920526757756 l -2.4520464504802297 -1.2163296983752483" fill="#ff0801" stroke="none" /><path d="M 118.64920377521936 109.65438752849418 l 3.954941595514008 2.0474085261693276 a25.453475574981606,25.453475574981606 0 0,0 -0.2047762312072424,0.38735945750647355 l -3.9191128560818727 -2.1151829987619357" fill="#ff2103" stroke="none" /><line stroke="#e1ed5e" stroke-width="0.3" x1="174.80103733775053" x2="179.2010983576182" y1="140.37084112569926" y2="142.7455964860345" /><path d="M 175.68104954172406 140.8457921977663 a86.0,86.0 0 0,1 -30.038265399797805,32.042727171017184" fill="none" id="id5" stroke="none" /><text fill="#e1ed5e" style="font-size:6.75px; font-family:Arial;" text-anchor="middle"><textPath startOffset="22.206326154141568" xlink:href="#id5">May</textPath></text><path d="M 118.48025628344425 109.97397251340804 l 4.643643837401448 2.506219355723495 a26.27679481765584,26.27679481765584 0 0,0 -0.218252042866738,0.39619085339436244 l -4.5998153850832 -2.5857807275156626" fill="#ff2d04" stroke="none" /><path d="M 118.30583269289576 110.29060199501025 l 4.617973735493916 2.5959884225218075 a26.297625629617375,26.297625629617375 0 0,0 -0.22521787978184324,0.3926863570712257 l -4.572603859559693 -2.6750946254513486" fill="#ff2d04" stroke="none" /><path d="M 118.12598468904814 110.60418214915192 l 4.573858349050251 2.675828535100412 a26.299079028136333,26.299079028136333 0 0,0 -0.2319567803587871,0.3887729060104055 l -4.527120692993237 -2.7541635349969216" fill="#ff2d04" stroke="none" /><path d="M 117.75023020441432 111.22182372390056 l 4.50874907548616 2.8504637268209843 a26.334225499884635,26.334225499884635 0 0,0 -0.2455292037909275,0.3810667767720295 l -4.4590150083181825 -2.927652103514467" fill="#ff2e04" stroke="none" /><path d="M 117.55443506779139 111.5257021239791 l 4.440044442275676 2.915196613350025 a26.31153141230197,26.31153141230197 0 0,0 -0.25183505265528383,0.3764592342910045 l -4.389206284209671 -2.991192761846836" fill="#ff2e04" stroke="none" /><path d="M 117.35343817320211 111.8261652097733 l 4.410265269980386 3.0055442144171596 a26.337015624523843,26.337015624523843 0 0,0 -0.25852802423314236,0.3724289008390164 l -4.357876338585108 -3.0810143774431955" fill="#ff2e04" stroke="none" /><path d="M 117.14729908036423 112.12312394758627 l 1.8218158574510719 1.2880220579373227 a23.23114630631729,23.23114630631729 0 0,0 -0.23366131172252788,0.3245351253867416 l -1.7993747533529412 -1.3191907887751957" fill="#ff0000" stroke="none" /><path d="M 116.93607887273984 112.41649034213515 l 4.280884298305765 3.138480810411611 a26.30811003774439,26.30811003774439 0 0,0 -0.27089678048609434,0.36291050678029807 l -4.2262262511245785 -3.2117041967012243" fill="#ff2d04" stroke="none" /><path d="M 116.71984013943494 112.70617746262583 l 4.198406661119201 3.1905628075134103 a26.273168831055756,26.273168831055756 0 0,0 -0.27673551597658397,0.3577179587226967 l -4.142864327924548 -3.26235876034936" fill="#ff2d04" stroke="none" /><path d="M 116.498646956653 112.99209946851258 l 1.798035057629914 1.4158888530662612 a23.28859592604363,23.28859592604363 0 0,0 -0.250720685346227,0.31281260503713626 l -1.7733964602288332 -1.4466292916816479" fill="#ff0100" stroke="none" /><path d="M 116.27256486870786 113.27417163493432 l 4.130460882393371 3.3693795124889623 a26.330424504686487,26.330424504686487 0 0,0 -0.28951430203015127,0.3487386272092511 l -4.071850580469676 -3.4399793968119834" fill="#ff2e04" stroke="none" /><path d="M 116.0416608686014 113.55231037782055 l 4.133634793893189 3.4921759145929974 a26.41130568603806,26.41130568603806 0 0,0 -0.29638200080622623,0.34475922521849445 l -4.072910283516184 -3.5628122389730197" fill="#ff2f04" stroke="none" /><path d="M 115.80600337817218 113.82643327865902 l 3.9869874587456087 3.4876505314002575 a26.297147838730883,26.297147838730883 0 0,0 -0.30096603631087115,0.3381385323143088 l -3.926362572786399 -3.5557632334554325" fill="#ff2d04" stroke="none" /><path d="M 115.56566222782051 114.09645910891815 l 1.6429218155306167 1.4878506197047079 a23.216504355624437,23.216504355624437 0 0,0 -0.27080791122348435,0.29390850242105243 l -1.6170674963114102 -1.5159103769270952" fill="#ff0000" stroke="none" /><path d="M 115.32070863581623 114.36230785411682 l 3.842447508825764 3.602079730569835 a26.266818892221696,26.266818892221696 0 0,0 -0.3120666299868837,0.32720061391530236 l -3.779874327459916 -3.6676874610676444" fill="#ff2d04" stroke="none" /><path d="M 115.07121518719521 114.62390073753431 l 2.3139168378963832 2.2452396659465013 a24.224176218856524,24.224176218856524 0 0,0 -0.2929503167183506,0.29675712418039807 l -2.2749258961224967 -2.284737284107564" fill="#ff0f01" stroke="none" /><path d="M 114.81725581225074 114.88116024355365 l 3.744634135481586 3.7607841377423004 a26.307144443041665,26.307144443041665 0 0,0 -0.3236405723674607,0.316750417372577 l -3.6793436107383313 -3.8246846580374494" fill="#ff2d04" stroke="none" /><path d="M 114.55890576462653 115.13401014063108 l 3.715167703251425 3.861923870114043 a26.358817690670126,26.358817690670126 0 0,0 -0.3296912788173661,0.31174368241387224 l -3.6481405900432513 -3.925302189273837" fill="#ff2e04" stroke="none" /><path d="M 114.29624159901734 115.38237550388516 l 42.88872479705202 46.14712651165547 a84.0,84.0 0 0,0 -1.0676018021325442,0.9752289336536681 l -42.088023445452606 -46.878548211895726" fill="#4dd2ff" stroke="none" /><path d="M 114.0293411484842 115.62618273729858 l 3.533485995797368 3.9356729076319295 a26.289144025110687,26.289144025110687 0 0,0 -0.33932731064506383,0.29941689873437044 l -3.4652163322457166 -3.9959129481385887" fill="#ff2d04" stroke="none" /><path d="M 113.75828350139079 115.86535959552629 l 4.848264000432663 5.590773861661843 a28.400163254289232,28.400163254289232 0 0,0 -0.3720888277191868,0.31710217127701557 l -4.751309696136429 -5.673400423161805" fill="#ff4b07" stroke="none" /><path d="M 113.48314897796784 116.09983520530334 l 3.393347612028347 4.051897478640788 a26.285137764852877,26.285137764852877 0 0,0 -0.3493793869280223,0.287515449814201 l -3.3230980965556336 -4.109708047312167" fill="#ff2d04" stroke="none" /><path d="M 113.20401910651253 116.32954008644616 l 3.3435568461260368 4.1350095838014385 a26.31767586840398,26.31767586840398 0 0,0 -0.3547152839831013,0.28180727452427384 l -3.2718840694255844 -4.191950772330839" fill="#ff2e04" stroke="none" /><path d="M 112.92097659922987 116.55440617244103 l 3.2622449598049093 4.179601107073272 a26.302009769136667,26.302009769136667 0 0,0 -0.35929957074518026,0.2754955895277242 l -3.1898166605662355 -4.235136038428368" fill="#ff2d04" stroke="none" /><path d="M 112.63410532772338 116.77436683061366 l 3.205248496020357 4.255624965982983 a26.327660065388784,26.327660065388784 0 0,0 -0.3643435099387117,0.26953261842951765 l -3.131520015663081 -4.31016753315227" fill="#ff2e04" stroke="none" /><path d="M 111.7513745106137 117.40417183066458 l 2.9576743156020866 4.380412858205614 a26.28543793507268,26.28543793507268 0 0,0 -0.3771651192637024,0.24996447486263537 l -2.8818344975984203 -4.430675354159567" fill="#ff2d04" stroke="none" /><path d="M 111.45004920935366 117.60387380957326 l 2.8780514518875506 4.424859111967735 a26.27849962778022,26.27849962778022 0 0,0 -0.38131128816607607,0.24337090522676966 l -2.801458361674544 -4.473744446018314" fill="#ff2d04" stroke="none" /><path d="M 111.1453310114006 117.79835938074945 l 2.716593263082046 4.338220474403029 a26.118597057940036,26.118597057940036 0 0,0 -0.3830986267824923,0.23533046636307842 l -2.6415154363672446 -4.384339407594485" fill="#ff2b04" stroke="none" /><line stroke="#e1ed5e" stroke-width="0.3" x1="143.8653032363475" x2="146.44561519142675" y1="172.8068346515853" y2="177.08958963109032" /><path d="M 144.38136562736335 173.6633856474863 a86.0,86.0 0 0,1 -40.68145358897372,12.25698825130547" fill="none" id="id6" stroke="none" /><text fill="#e1ed5e" style="font-size:6.75px; font-family:Arial;" text-anchor="middle"><textPath startOffset="21.466115282336833" xlink:href="#id6">June</textPath></text><path d="M 110.5260780823613 118.17145234162733 l 1.6802795077468724 2.9007118089690143 a24.352233318676724,24.352233318676724 0 0,0 -0.3645311700927947,0.20699031205782686 l -1.6300995707328787 -2.9292052868214697" fill="#ff1101" stroke="none" /><path d="M 110.21172684928248 118.3499491758327 l 2.5751470141441213 4.627407051449105 a26.295684862626956,26.295684862626956 0 0,0 -0.39741192960422295,0.2167006706598424 l -2.49511227267125 -4.671048373868718" fill="#ff2d04" stroke="none" /><path d="M 109.89434966115114 118.52300852407294 l 2.4893640786802913 4.660287298109428 a26.28348476075628,26.28348476075628 0 0,0 -0.40089710867506906,0.20973041969131484 l -2.4087760674787266 -4.70244713674546" fill="#ff2d04" stroke="none" /><path d="M 109.57404056367764 118.69057910512821 l 2.4296713857081498 4.743239276249812 a26.329317205260708,26.329317205260708 0 0,0 -0.40515314134576474,0.20315219591201203 l -2.3476643366796246 -4.784359313071126" fill="#ff2e04" stroke="none" /><path d="M 108.92500713936063 119.00905698771935 l 2.2430172206936256 4.777323032556755 a26.277683356334048,26.277683356334048 0 0,0 -0.41109809426883565,0.18871497199058435 l -2.160451130657371 -4.815225074881413" fill="#ff2d04" stroke="none" /><path d="M 108.59647513512805 119.15986991738527 l 2.1661596737546587 4.827948306373688 a26.29162853772045,26.29162853772045 0 0,0 -0.4145054589722587,0.18170701202087258 l -2.082733540124646 -4.864519871689016" fill="#ff2d04" stroke="none" /><path d="M 108.2653958097858 119.30500536409082 l 2.078753138420388 4.855223078405268 a26.281515478683342,26.281515478683342 0 0,0 -0.41741121427619715,0.17447792142050225 l -1.99487046464673 -4.890286042845743" fill="#ff2d04" stroke="none" /><path d="M 107.93186726928326 119.44442032107085 l 1.9909031029098534 4.880560331792016 a26.271011697714005,26.271011697714005 0 0,0 -0.4201847209676059,0.1672001720973597 l -1.9065973059003811 -4.914107348295445" fill="#ff2d04" stroke="none" /><path d="M 107.59598834532513 119.57807347666477 l 1.9126444758056438 4.929693461826539 a26.287729807621147,26.287729807621147 0 0,0 -0.42326972745545155,0.16004439317278302 l -1.8275045275899175 -4.961886105105953" fill="#ff2d04" stroke="none" /><path d="M 107.2578585660854 119.70592522655815 l 1.8293502267055282 4.96689739162136 a26.29307018193058,26.29307018193058 0 0,0 -0.42604845113812173,0.15276581650029777 l -1.7435822149376716 -4.997650749161617" fill="#ff2d04" stroke="none" /><path d="M 106.91757812671514 119.82793768551818 l 1.7443901658085141 4.999966588495352 a26.295522914372036,26.295522914372036 0 0,0 -0.4286549229443927,0.14542302329653004 l -1.6580655099268946 -5.029252598690005" fill="#ff2d04" stroke="none" /><path d="M 106.57524785965236 119.94407469862006 l 1.6553693077572622 5.021074464782126 a26.286911794795888,26.286911794795888 0 0,0 -0.43095345878216296,0.13797768844036828 l -1.5686945038841589 -5.048824999882201" fill="#ff2d04" stroke="none" /><path d="M 106.2309692047433 120.05430185196036 l 1.5719077958708756 5.059166942736139 a26.29774143132654,26.29774143132654 0 0,0 -0.4334431630991288,0.13059286945328363 l -1.484589658331501 -5.085475181295148" fill="#ff2d04" stroke="none" /><path d="M 105.88484417918355 120.15858648285463 l 1.4873834496957405 5.095045338654674 a26.307711044261502,26.307711044261502 0 0,0 -0.4357920338480386,0.12315918177442466 l -1.3994602477430962 -5.1198933137676175" fill="#ff2d04" stroke="none" /><path d="M 105.53697534728816 120.25689768951611 l 1.3962826436912603 5.108268122008844 a26.295659394957838,26.295659394957838 0 0,0 -0.43764687005292385,0.11558651609148064 l -1.308145330826839 -5.131545987403908" fill="#ff2d04" stroke="none" /><path d="M 105.18746579009965 120.34920634021253 l 1.312487573463399 5.1485795824127205 a26.313237746133048,26.313237746133048 0 0,0 -0.4398655085024265,0.10810824011524428 l -1.2236687802177613 -5.170409080841995" fill="#ff2e04" stroke="none" /><path d="M 104.83641907484287 120.43548508189849 l 1.2185168986319186 5.148640661343604 a26.290867990405,26.290867990405 0 0,0 -0.4412857724566638,0.100435205108009 l -1.1297109767823927 -5.168852600029298" fill="#ff2d04" stroke="none" /><path d="M 104.48393922423573 120.51570834832081 l 1.1325469474093122 5.181828232248354 a26.304149924032338,26.304149924032338 0 0,0 -0.44317299252211517,0.09287120947330495 l -1.0431824934578189 -5.2005554224482005" fill="#ff2d04" stroke="none" /><path d="M 104.13013068566511 120.58985236759428 l 1.0325478690575514 5.147538856375288 a26.250077273696903,26.250077273696903 0 0,0 -0.4437917881979858,0.08505375244150204 l -0.9437884662878612 -5.164549807165258" fill="#ff2d04" stroke="none" /><path d="M 103.7750983002368 120.6578951692458 l 0.9457868467036598 5.175485239796311 a26.261193802431833,26.261193802431833 0 0,0 -0.44537862776704407,0.07743478333247247 l -0.8565592474645658 -5.19099860164979" fill="#ff2d04" stroke="none" /><path d="M 103.41894727170886 120.7198165907248 l 1.00715107425799 6.103628947558105 a27.18616517851312,27.18616517851312 0 0,0 -0.46237729560856394,0.07221382430469687 l -0.901937915040909 -6.120061079209908" fill="#ff3a05" stroke="none" /><path d="M 103.06178313531738 120.77559828337769 l 0.7732427970810816 5.24680587020304 a26.303477751705465,26.303477751705465 0 0,0 -0.4485011112018589,0.062158167261144995 l -0.6828130946923923 -5.259338602956787" fill="#ff2d04" stroke="none" /><path d="M 102.70371172650421 120.8252237178851 l 0.6922329158636205 5.331894371883728 a26.37664244698589,26.37664244698589 0 0,0 -0.45075493553343676,0.05458014531115418 l -0.6003505572788034 -5.343020045920233" fill="#ff2e04" stroke="none" /><path d="M 102.34483914955558 120.86867818915974 l 0.5897842386458158 5.248981568595367 a26.28201220706739,26.28201220706739 0 0,0 -0.45000737548928926,0.046645104438612785 l -0.49934426655092384 -5.258356041489739" fill="#ff2d04" stroke="none" /><path d="M 101.98527174616119 120.90594882070398 l 0.49815736636765284 5.245857362387128 a26.269457299208106,26.269457299208106 0 0,0 -0.45052830076932066,0.03887347751460072 l -0.40778474785679053 -5.253655092180392" fill="#ff2d04" stroke="none" /><path d="M 101.62511606390274 120.93702456842531 l 0.4078218066358039 5.254132535351323 a26.26993617845653,26.26993617845653 0 0,0 -0.45113891704344095,0.031113181057607006 l -0.31732012881343263 -5.260374060925215" fill="#ff2d04" stroke="none" /><path d="M 101.26447882468166 120.96189622390904 l 0.3200054433863167 5.304889860088176 a26.314532896827643,26.314532896827643 0 0,0 -0.4523743023752753,0.023382584229390428 l -0.2286430725975618 -5.309612251079768" fill="#ff2e04" stroke="none" /><path d="M 100.90346689309514 120.98055641714683 l 0.22783913672455622 5.290943031357086 a26.295846375537106,26.295846375537106 0 0,0 -0.45238829195101976,0.015581167476537112 l -0.13673049309888416 -5.294080997259718" fill="#ff2d04" stroke="none" /><line stroke="#e1ed5e" stroke-width="0.3" x1="102.19456741930631" x2="102.32365962044197" y1="184.97166512339345" y2="189.96999836594603" /><path d="M 102.22038585953345 185.97133177190398 a86.0,86.0 0 0,1 -42.740103519485714,-10.115201625700543" fill="none" id="id7" stroke="none" /><text fill="#e1ed5e" style="font-size:6.75px; font-family:Arial;" text-anchor="middle"><textPath startOffset="22.20632615414155" xlink:href="#id7">July</textPath></text><path d="M 100.54218724476979 120.99299961872073 l 0.13633101499711245 5.278613566553668 a26.28037378702063,26.28037378702063 0 0,0 -0.4523231643484446,0.00778715347628156 l -0.04544816075599991 -5.28017819730911" fill="#ff2d04" stroke="none" /><path d="M 100.18074693466247 120.99922214144158 l 0.04643787753078902 5.39516372915074 a26.395363578185744,26.395363578185744 0 0,0 -0.4543696243864852,0.0 l 0.04643787753078531 -5.39516372915074" fill="#ff2f04" stroke="none" /><path d="M 99.81925306533755 120.99922214144158 l -0.19029375687323508 22.108374231481488 a43.10919317553537,43.10919317553537 0 0,0 -0.7419714357067803,-0.012773711143422102 l 0.5708248824726833 -22.101823043058907" fill="#f0ff19" stroke="none" /><path d="M 99.45781275523022 120.99299961872073 l -0.13715319288147879 5.31044755043949 a26.31221838635107,26.31221838635107 0 0,0 -0.4526699526324241,-0.015590868439905129 l 0.2285434971885459 -5.307299883573491" fill="#ff2e04" stroke="none" /><path d="M 99.09653310690486 120.98055641714683 l -0.22914728021504846 5.321321098903092 a26.3262525957432,26.3262525957432 0 0,0 -0.45257577623922157,-0.023392998126840574 l 0.320711124867759 -5.31658829401405" fill="#ff2e04" stroke="none" /><path d="M 98.73552117531835 120.96189622390904 l -0.3203214999833967 5.310129287953342 a26.319781848735104,26.319781848735104 0 0,0 -0.4519949268013646,-0.031172216502298605 l 0.4116791875636913 -5.303828726934759" fill="#ff2e04" stroke="none" /><path d="M 98.37488393609728 120.93702456842531 l -0.4109803937506978 5.294825884888034 a26.310751927488973,26.310751927488973 0 0,0 -0.45123651481799226,-0.03893458520272941 l 0.5020612263102318 -5.286967047406642" fill="#ff2d04" stroke="none" /><path d="M 98.01472825383883 120.90594882070398 l -0.5112359865396362 5.383582066569155 a26.40780159597393,26.40780159597393 0 0,0 -0.452161173772334,-0.046868354436996086 l 0.6038297569175635 -5.3739843436763985" fill="#ff2f04" stroke="none" /><path d="M 97.65516085044442 120.86867818915974 l -0.6009858921342808 5.34867442039784 a26.38233240314667,26.38233240314667 0 0,0 -0.45085217216343226,-0.05459191931289724 l 0.6929654873491023 -5.337536972359594" fill="#ff2f04" stroke="none" /><path d="M 97.2962882734958 120.8252237178851 l -0.6761306919434733 5.207867682127848 a26.251574859710146,26.251574859710146 0 0,0 -0.44761611398003714,-0.062035514710310734 l 0.7656753971103415 -5.195457601924932" fill="#ff2d04" stroke="none" /><path d="M 96.93821686468263 120.77559828337769 l -0.7943350699001801 5.389926583724004 a26.448144342912368,26.448144342912368 0 0,0 -0.44982517301874186,-0.07025344090360576 l 0.8869961065274391 -5.375454835473293" fill="#ff2f04" stroke="none" /><path d="M 96.58105272829116 120.7198165907248 l -0.858582791005306 5.2032618650743245 a26.27362289565221,26.27362289565221 0 0,0 -0.445589419878192,-0.07747143224294394 l 0.9480211823555479 -5.187711854310375" fill="#ff2d04" stroke="none" /><path d="M 96.22490169976321 120.6578951692458 l -1.1789444676051442 6.451358159500567 a27.558195800664336,27.558195800664336 0 0,0 -0.4659072377719122,-0.08929223098755629 l 1.2898193199487513 -6.430108730164544" fill="#ff3f06" stroke="none" /><path d="M 95.16358092515715 120.4354850818985 l -1.2221829921666014 5.164131130340932 a26.306786371967277,26.306786371967277 0 0,0 -0.4397576640400565,-0.10808173457023629 l 1.3108939409498686 -5.142328137456666" fill="#ff2d04" stroke="none" /><path d="M 94.81253420990036 120.34920634021253 l -1.3113376502251788 5.1440687044239874 a26.30858260449363,26.30858260449363 0 0,0 -0.4378619550644726,-0.11564332199790814 l 1.3996900481011407 -5.120734033122497" fill="#ff2d04" stroke="none" /><path d="M 94.46302465271185 120.25689768951611 l -1.3985346183288694 5.1165069197227995 a26.304200424025808,26.304200424025808 0 0,0 -0.435733879783237,-0.12314274685482643 l 1.4863996662167205 -5.091675379529452" fill="#ff2d04" stroke="none" /><path d="M 94.11515582081647 120.15858648285463 l -1.4739657361346992 5.049082840585631 a26.259830084935764,26.259830084935764 0 0,0 -0.4328183028258663,-0.13040460417875663 l 1.5606590134008114 -5.022962867301149" fill="#ff2d04" stroke="none" /><path d="M 93.76903079525671 120.05430185196036 l -1.5548824894017776 5.0043711920536555 a26.24036168443599,26.24036168443599 0 0,0 -0.43019030595451657,-0.1377333510045279 l 1.6407941404472346 -4.976864994389421" fill="#ff2c04" stroke="none" /><path d="M 93.42475214034765 119.94407469862007 l -1.643797856878479 4.985975882093871 a26.24995494181617,26.24995494181617 0 0,0 -0.42791209931512947,-0.14517101719054212 l 1.7293796891308344 -4.956941878005205" fill="#ff2d04" stroke="none" /><path d="M 93.08242187328487 119.8279376855182 l -1.743061506806317 4.996158237159347 a26.29148944506602,26.29148944506602 0 0,0 -0.42602283714599853,-0.15275663223402383 l 1.8288039045820421 -4.9654140638853645" fill="#ff2d04" stroke="none" /><path d="M 92.7421414339146 119.70592522655815 l -1.822140535063537 4.947322245163218 a26.272209548852214,26.272209548852214 0 0,0 -0.4230198292806183,-0.15994990306599885 l 1.9070305851044382 -4.915224091990587" fill="#ff2d04" stroke="none" /><path d="M 92.40401165467489 119.57807347666478 l -1.909945909307372 4.922738115032561 a26.28026930427552,26.28026930427552 0 0,0 -0.42033278929763085,-0.16725909154165755 l 1.9943997746468611 -4.889132179084837" fill="#ff2d04" stroke="none" /><path d="M 92.06813273071674 119.44442032107085 l -1.9921534528693257 4.883625477656798 a26.274322059354905,26.274322059354905 0 0,0 -0.417296966150013,-0.17443016569449207 l 2.0759218785168008 -4.848610268942332" fill="#ff2d04" stroke="none" /><path d="M 91.7346041902142 119.30500536409082 l -2.0923050954152447 4.88687559795792 a26.315947114317183,26.315947114317183 0 0,0 -0.4148888579214591,-0.18187508285314266 l 2.1761146279944468 -4.850135961810326" fill="#ff2e04" stroke="none" /><path d="M 91.40352486487194 119.15986991738527 l -2.177583442860844 4.853409664267498 a26.31953522592217,26.31953522592217 0 0,0 -0.4117528408686769,-0.1890155340412787 l 2.26080427949694 -4.815207059892145" fill="#ff2e04" stroke="none" /><path d="M 91.07499286063937 119.00905698771935 l -2.2477861543874473 4.787480215732182 a26.28890436781409,26.28890436781409 0 0,0 -0.4079629002677961,-0.1958469839931662 l 2.3298617226554854 -4.748078955239453" fill="#ff2d04" stroke="none" /><path d="M 90.10565033884886 118.52300852407294 l -2.49583387367254 4.6723992682635656 a26.29721640553236,26.29721640553236 0 0,0 -0.39743507611760553,-0.2167132919844678 l 2.575891761658786 -4.628745324519332" fill="#ff2d04" stroke="none" /><line stroke="#e1ed5e" stroke-width="0.3" x1="58.666819895761336" x2="56.23545636021788" y1="174.27360380694188" y2="178.64263932499728" /><path d="M 58.180547188652646 175.14741091055294 a86.0,86.0 0 0,1 -31.652253787137756,-30.449443065178592" fill="none" id="id8" stroke="none" /><text fill="#e1ed5e" style="font-size:6.75px; font-family:Arial;" text-anchor="middle"><textPath startOffset="22.20632615414155" xlink:href="#id8">August</textPath></text><path d="M 89.7882731507175 118.34994917583269 l -2.5922514385165782 4.658142824403949 a26.330859414113007,26.330859414113007 0 0,0 -0.394149434516703,-0.22380833558694063 l 2.6720496399544884 -4.612831323022376" fill="#ff2e04" stroke="none" /><path d="M 89.4739219176387 118.17145234162733 l -2.6530960949715 4.580111307393725 a26.29304623796816,26.29304623796816 0 0,0 -0.3896781313234295,-0.2302287086182878 l 2.7315420973233118 -4.533764026481688" fill="#ff2d04" stroke="none" /><path d="M 89.1626897886671 117.98757091392108 l -7.4133891427517495 12.304608829808409 a35.365296273884105,35.365296273884105 0 0,0 -0.5187260406148916,-0.3186439013833456 l 7.62409438329895 -12.175176461596685" fill="#ffab0f" stroke="none" /><path d="M 88.8546689885994 117.79835938074946 l -2.823926294922426 4.509624255247799 a26.320833641702546,26.320833641702546 0 0,0 -0.38192557123439586,-0.24376296974476902 l 2.9011336682037454 -4.460346856679227" fill="#ff2e04" stroke="none" /><path d="M 88.54995079064634 117.60387380957326 l -2.876423585064953 4.422356348739399 a26.275514033338702,26.275514033338702 0 0,0 -0.377022722945626,-0.24987010234764628 l 2.9521210067505406 -4.372188225300434" fill="#ff2d04" stroke="none" /><path d="M 88.24862548938628 117.40417183066458 l -2.9857582892399064 4.422006146074959 a26.335624697979565,26.335624697979565 0 0,0 -0.3735183097832661,-0.2569092993907162 l 3.061433483646063 -4.369956057319142" fill="#ff2e04" stroke="none" /><path d="M 87.65650970185807 116.9893568818739 l -3.099076842958694 4.265513336799231 a26.272464443215803,26.272464443215803 0 0,0 -0.3635796681591609,-0.26896754654188676 l 3.1720414815364193 -4.211535841517577" fill="#ff2d04" stroke="none" /><path d="M 87.07902340077011 116.55440617244103 l -3.324666602083833 4.259575961319017 a26.40346142627654,26.40346142627654 0 0,0 -0.3558715201444682,-0.2827258584592055 l 3.3974956149456594 -4.2017161888546815" fill="#ff2f04" stroke="none" /><path d="M 86.79598089348748 116.32954008644616 l -3.306100508314926 4.088686963026352 a26.258104378262367,26.258104378262367 0 0,0 -0.3490200618935485,-0.2872197497735476 l 3.375990698753163 -4.0311720943956235" fill="#ff2d04" stroke="none" /><path d="M 86.51685102203217 116.09983520530335 l -3.4235430759802843 4.0879530020476915 a26.33216718980597,26.33216718980597 0 0,0 -0.34499467954573965,-0.2940119504086164 l 3.4934032321030806 -4.028416661416124" fill="#ff2e04" stroke="none" /><path d="M 86.24171649860922 115.8653595955263 l -3.5194176196411195 4.058415142905958 a26.37187433337832,26.37187433337832 0 0,0 -0.34039515267850845,-0.30035914517302104 l 3.588755125226216 -3.997232855960649" fill="#ff2e04" stroke="none" /><path d="M 85.97065885151581 115.62618273729859 l -8.880648625975141 9.891457965595247 a34.293113281062936,34.293113281062936 0 0,0 -0.4358498754714233,-0.39813852734233823 l 9.049598050913419 -9.737126671666333" fill="#ff9d0e" stroke="none" /><path d="M 85.70375840098266 115.38237550388516 l -3.6151933063081017 3.88985178877963 a26.310420847790407,26.310420847790407 0 0,0 -0.32908593994339624,-0.31117129672518573 l 3.681615080642315 -3.8270458553085134" fill="#ff2d04" stroke="none" /><path d="M 85.44109423537348 115.13401014063109 l -8.632233031230307 8.973222599485755 a33.451271859749326,33.451271859749326 0 0,0 -0.4115303656217377,-0.40276907842127424 l 8.785413349227838 -8.82330341814191" fill="#ff920d" stroke="none" /><path d="M 85.18274418774928 114.88116024355367 l -3.7731911609765234 3.789464325076188 a26.34761735806672,26.34761735806672 0 0,0 -0.318629735025267,-0.32277023934870047 l 3.8378615210573233 -3.7239535917468225" fill="#ff2e04" stroke="none" /><path d="M 84.9287848128048 114.62390073753433 l -8.546120045835385 8.292470758929412 a32.908032546375104,32.908032546375104 0 0,0 -0.3909685013013634,-0.40992891054300923 l 8.687595098515708 -8.144134731803902" fill="#ff8a0c" stroke="none" /><path d="M 84.67929136418377 114.36230785411682 l -4.053353903799187 3.7997926853041175 a26.55590697552927,26.55590697552927 0 0,0 -0.3097602286946272,-0.3361835498598423 l 4.1181605404895425 -3.729457880642931" fill="#ff3104" stroke="none" /><path d="M 84.43433777217949 114.09645910891817 l -3.9510237751076978 3.5780967278491174 a26.33041884520446,26.33041884520446 0 0,0 -0.30134681688083387,-0.33856634332129193 l 4.012029441636869 -3.5095562147869614" fill="#ff2e04" stroke="none" /><path d="M 84.19399662182784 113.82643327865904 l -4.057826342627899 3.5496174358794654 a26.391265024836418,26.391265024836418 0 0,0 -0.29615710880978235,-0.34449762501928605 l 4.11832596100846 -3.479242711698649" fill="#ff2f04" stroke="none" /><path d="M 83.95833913139862 113.55231037782056 l -4.1727194740359606 3.5251954205314084 a26.462471103990808,26.462471103990808 0 0,0 -0.29096621098158015,-0.3504875450727345 l 4.232781684911077 -3.4528466183449127" fill="#ff3004" stroke="none" /><path d="M 83.50135304334701 112.99209946851258 l -7.64673072695852 6.021529309318026 a30.73300087504299,30.73300087504299 0 0,0 -0.32371096571384034,-0.4184400598624501 l 7.749248509890429 -5.889011255342323" fill="#ff6c0a" stroke="none" /><path d="M 83.28015986056508 112.70617746262583 l -4.238335039540405 3.2209062233465673 a26.323318589657077,26.323318589657077 0 0,0 -0.2710533842004365,-0.3631203030474697 l 4.293149690435927 -3.1474730407897895" fill="#ff2e04" stroke="none" /><path d="M 83.06392112726016 112.41649034213515 l -4.313025632953516 3.162044858160557 a26.34796389250467,26.34796389250467 0 0,0 -0.265010590659754,-0.36807653194512807 l 4.366816015988878 -3.087334720764291" fill="#ff2e04" stroke="none" /><path d="M 82.6465618267979 111.8261652097733 l -4.4695956113276205 3.0459771483246425 a26.408813337222412,26.408813337222412 0 0,0 -0.25276616526520906,-0.3778511213078247 l 4.52136488200356 -2.9685891128109967" fill="#ff2f04" stroke="none" /><path d="M 82.44556493220864 111.52570212397912 l -4.397233207175762 2.887088073176809 a26.26031723573484,26.26031723573484 0 0,0 -0.24484011433013453,-0.37999729462620563 l 4.446278184882941 -2.8109691786291546" fill="#ff2d04" stroke="none" /><path d="M 82.24976979558568 111.22182372390057 l -4.431696633152578 2.8017506163201213 a26.243066046155253,26.243066046155253 0 0,0 -0.23810628787246776,-0.38390315074297926 l 4.4792675606930015 -2.725051134211878" fill="#ff2d04" stroke="none" /><path d="M 82.05923443525364 110.91462005526583 l -4.538559050859512 2.76112228654607 a26.31246783890502,26.31246783890502 0 0,0 -0.2320748691114488,-0.3889708295523199 l 4.585414795669193 -2.6825893631076387" fill="#ff2e04" stroke="none" /><line stroke="#e1ed5e" stroke-width="0.3" x1="26.63291911575756" x2="22.317208475507996" y1="142.92168965132927" y2="145.44649492493687" /><path d="M 25.769776987707644 143.4266507060508 a86.0,86.0 0 0,1 -11.730757126820373,-40.83630448921669" fill="none" id="id9" stroke="none" /><text fill="#e1ed5e" style="font-size:6.75px; font-family:Arial;" text-anchor="middle"><textPath startOffset="21.46611528233685" xlink:href="#id9">September</textPath></text><path d="M 81.69416730710424 110.29060199501025 l -2.8970054400331144 1.6285481497014835 a24.323373225425875,24.323373225425875 0 0,0 -0.2020271472490299,-0.3667379550087085 l 2.924608996733661 -1.5784396762949526" fill="#ff1001" stroke="none" /><path d="M 81.51974371655577 109.97397251340807 l -4.652966979454358 2.5112511453885413 a26.28738915033761,26.28738915033761 0 0,0 -0.21148516486980393,-0.4000502316683703 l 4.695504652549047 -2.430785898634045" fill="#ff2d04" stroke="none" /><path d="M 81.35079622478065 109.6543875284942 l -4.648634820911811 2.406522154000484 a26.234611215351997,26.234611215351997 0 0,0 -0.20415690773585474,-0.40282094733370266 l 4.689370398433932 -2.3261469949640965" fill="#ff2c04" stroke="none" /><path d="M 81.18737489456691 109.33194174019688 l -4.762723156159442 2.3625333928081456 a26.316492818987996,26.316492818987996 0 0,0 -0.1978082232761614,-0.4075435288092939 l 4.802684636050323 -2.2802009080335672" fill="#ff2e04" stroke="none" /><path d="M 81.02952815118164 109.00673069616217 l -4.77580120500536 2.2674372917387036 a26.286733303439657,26.286733303439657 0 0,0 -0.19054800234025668,-0.4104234450948195 l 4.814123824185443 -2.1848937793650567" fill="#ff2d04" stroke="none" /><path d="M 80.87730276802145 108.67885076344099 l -4.847259172006947 2.1999322823151863 a26.32312159614807,26.32312159614807 0 0,0 -0.18370895941038484,-0.41421520572153203 l 4.884409216148612 -2.1161687401009583" fill="#ff2e04" stroke="none" /><path d="M 80.73074385275274 108.34839909993369 l -4.879795991895751 2.11417006215999 a26.318094017056808,26.318094017056808 0 0,0 -0.17651798662814655,-0.41723637781863165 l 4.915464959716204 -2.0298591586751997" fill="#ff2e04" stroke="none" /><path d="M 80.58989483394504 108.01547362559985 l -6.752995500000593 2.7886740881090577 a28.30613792593044,28.30613792593044 0 0,0 -0.18209929686966714,-0.45195552097586755 l 6.799997411127648 -2.672019199290385" fill="#ff4a06" stroke="none" /><path d="M 80.20201598880116 107.00284435728193 l -5.034495255223993 1.7807766017926552 a26.340159902134495,26.340159902134495 0 0,0 -0.14751639613869194,-0.42875169807344404 l 5.064402482305914 -1.6938522006299144" fill="#ff2e04" stroke="none" /><path d="M 80.0844068197444 106.66101706037122 l -5.022059330729637 1.679690008598442 a26.295511160063214,26.295511160063214 0 0,0 -0.13987677905084553,-0.4304964601178895 l 5.050228360796732 -1.592994648502749" fill="#ff2d04" stroke="none" /><path d="M 79.97269907076064 106.31721596034903 l -5.064092675307634 1.5973678722944635 a26.31004884568334,26.31004884568334 0 0,0 -0.1325189896156803,-0.43307972556146956 l 5.090838437429445 -1.509961174180946" fill="#ff2d04" stroke="none" /><path d="M 79.76711848015287 105.62410040840567 l -5.10215544733799 1.4182376596717023 a26.2956008410861,26.2956008410861 0 0,0 -0.11746861422148233,-0.437144412915242 l 5.125812137901248 -1.3302023135809213" fill="#ff2d04" stroke="none" /><path d="M 79.67330655649465 105.27499134158121 l -5.175887410090453 1.3431973748760373 a26.347334819310152,26.347334819310152 0 0,0 -0.11014275693406095,-0.43996556320037233 l 5.198241481319572 -1.253903972278273" fill="#ff2e04" stroke="none" /><path d="M 79.58551787078972 104.9243191809786 l -5.144386328747759 1.2409131964591575 a26.291935020439436,26.291935020439436 0 0,0 -0.10233751853149224,-0.4408673514119705 l 5.164984413209806 -1.1521771876986129" fill="#ff2d04" stroke="none" /><path d="M 79.50377843672027 104.57218783832718 l -5.157953362423972 1.1506087383727504 a26.28473115283649,26.28473115283649 0 0,0 -0.09470759283566721,-0.44244234394710213 l 5.17699499398408 -1.0616525750094845" fill="#ff2d04" stroke="none" /><path d="M 79.4281124754447 104.21870165774334 l -10.722704174647049 2.1989178106811966 a31.94584964062289,31.94584964062289 0 0,0 -0.10583213812606744,-0.5396357922458133 l 10.758966245748782 -2.014018291367429" fill="#ff7d0b" stroke="none" /><path d="M 79.35854240842038 103.8639653848113 l -5.211311806828187 0.9755284161355369 a26.301832366142367,26.301832366142367 0 0,0 -0.07947356364904797,-0.4457299504984924 l 5.2273318128164235 -0.8856797149038308" fill="#ff2d04" stroke="none" /><path d="M 79.23777060512086 103.15116336523772 l -2.631109375824252 0.39933358394912083 a23.661241037339522,23.661241037339522 0 0,0 -0.057649992942879424,-0.4032039163702434 l 2.6375934197837307 -0.3539841955984768" fill="#ff0701" stroke="none" /><path d="M 79.18660465613746 102.79330883721812 l -5.284341904242198 0.709197067375864 a26.33171922003631,26.33171922003631 0 0,0 -0.056423220182733116,-0.44974858015790614 l 5.2957666336717795 -0.6181307329305492" fill="#ff2e04" stroke="none" /><path d="M 79.10278846688536 102.07522291339032 l -2.647917255823511 0.26295463169040056 a23.660941737809257,23.660941737809257 0 0,0 -0.03675941793622027,-0.40563711381330303 l 2.6520512700368064 -0.2173361293285313" fill="#ff0701" stroke="none" /><path d="M 79.07016306316243 101.71520430193888 l -5.3668912308315715 0.4398178043594093 a26.3848826528169,26.3848826528169 0 0,0 -0.033199018996433495,-0.4529742374629098 l 5.373666808492341 -0.34737043039973886" fill="#ff2f04" stroke="none" /><path d="M 79.0095281055655 100.63252640178507 l -6.638978450536697 0.2000588253549488 a27.641992050604475,27.641992050604475 0 0,0 -0.010237984830053516,-0.47571892566365515 l 6.641438498051758 -0.08575008390116479" fill="#ff4106" stroke="none" /><line stroke="#e1ed5e" stroke-width="0.3" x1="15.007084014347285" x2="10.007500721073583" y1="101.09737516637583" y2="101.16192664675087" /><path d="M 14.007167355692545 101.11028546245083 a86.0,86.0 0 0,1 10.666146001902534,-42.60595125391555" fill="none" id="id10" stroke="none" /><text fill="#e1ed5e" style="font-size:6.75px; font-family:Arial;" text-anchor="middle"><textPath startOffset="22.20632615414155" xlink:href="#id10">October</textPath></text><path d="M 79.32604984820605 96.31383870115002 l -6.530904788652616 -1.1644590560414179 a27.633903997771036,27.633903997771036 0 0,0 0.08752614856933912,-0.4675681855096525 l 6.509892916173414 1.276705319013643" fill="#ff4106" stroke="none" /><path d="M 79.46518482838121 95.60439243477599 l -5.038951653836429 -1.0786195943469683 a26.15310139615068,26.15310139615068 0 0,0 0.09801885129437649,-0.43939929078740003 l 5.019638415540015 1.1651970546843275" fill="#ff2b04" stroke="none" /><path d="M 79.54389044137918 95.25157060432595 l -5.181114130689124 -1.2026800389391896 a26.318870454456405,26.318870454456405 0 0,0 0.10623699755822127,-0.4404209411304354 l 5.159644332870088 1.2916862117290218" fill="#ff2e04" stroke="none" /><path d="M 79.62865764111835 94.90015583598534 l -5.182105010215911 -1.2973091084563928 a26.34202426611755,26.34202426611755 0 0,0 0.11390249663451661,-0.43891278328538563 l 5.159006181711087 1.3863183172906421" fill="#ff2e04" stroke="none" /><path d="M 79.71946130924805 94.55025226153421 l -2.621197747968049 -0.7043632675089876 a23.714185927044923,23.714185927044923 0 0,0 0.1093260439517609,-0.39330394795292056 l 2.6086849334499274 0.7493785188808506" fill="#ff0701" stroke="none" /><line stroke="#e1ed5e" stroke-width="0.3" x1="26.266209847984243" x2="21.928928074336255" y1="57.711370442889674" y2="55.22380399835377" /><path d="M 25.398753493254645 57.213857153982495 a86.0,86.0 0 0,1 29.58750427330803,-30.492523968695096" fill="none" id="id11" stroke="none" /><text fill="#e1ed5e" style="font-size:6.75px; font-family:Arial;" text-anchor="middle"><textPath startOffset="21.46611528233685" xlink:href="#id11">November</textPath></text><line stroke="#e1ed5e" stroke-width="0.3" x1="56.762969772571076" x2="54.21961505331055" y1="26.818313649435495" y2="22.513508569990535" /><path d="M 56.25429882871897 25.957352633546506 a86.0,86.0 0 0,1 42.265352541879196,-11.944610805530505" fill="none" id="id12" stroke="none" /><text fill="#e1ed5e" style="font-size:6.75px; font-family:Arial;" text-anchor="middle"><textPath startOffset="22.20632615414155" xlink:href="#id12">December</textPath></text></svg>